<?xml version="1.0" encoding="UTF-8" standalone="no"?>
<svg width="237px" height="45px" viewBox="0 0 237 45" version="1.1" xmlns="http://www.w3.org/2000/svg" xmlns:xlink="http://www.w3.org/1999/xlink">
    <!-- Generator: Sketch 41.2 (35397) - http://www.bohemiancoding.com/sketch -->
    <title>Logo</title>
    <desc>Created with Sketch.</desc>
    <defs>
        <polygon id="path-1" points="0.127813953 31.627907 18.0580465 31.627907 18.0580465 0.377860465 0.127813953 0.377860465 0.127813953 31.627907"></polygon>
        <polygon id="path-3" points="0 40 236.407442 40 236.407442 0 0 0"></polygon>
    </defs>
    <g id="Symbols" stroke="none" stroke-width="1" fill="none" fill-rule="evenodd">
        <g id="Top-Nav-Bar" transform="translate(-60.000000, -22.000000)">
            <g id="Logo">
                <g transform="translate(60.000000, 22.500000)">
                    <g id="Page-1" stroke-width="1" fill-rule="evenodd">
                        <polygon id="Fill-1" fill="#333333" points="56.9748837 30.3906047 54.9637209 30.3906047 54.9637209 3.71060465 45.6855814 3.71060465 45.6855814 1.83618605 66.252093 1.83618605 66.252093 3.71060465 56.9748837 3.71060465"></polygon>
                        <g id="Group-27">
                            <path d="M65.3624186,19.7465116 C65.3624186,22.6637209 66.0033488,24.9381395 67.2861395,26.5725581 C68.5689302,28.2069767 70.3819535,29.0237209 72.7261395,29.0237209 C75.0703256,29.0237209 76.8833488,28.2069767 78.1661395,26.5725581 C79.448,24.9381395 80.0898605,22.6637209 80.0898605,19.7465116 C80.0898605,16.8172093 79.4414884,14.5446512 78.1456744,12.9297674 C76.8507907,11.315814 75.0312558,10.5074419 72.6870698,10.5074419 C70.3428837,10.5074419 68.5363721,11.312093 67.2675349,12.9195349 C65.9977674,14.5288372 65.3624186,16.804186 65.3624186,19.7465116 Z M82.1214884,19.7465116 C82.1214884,23.2106977 81.2805581,25.9148837 79.6014884,27.8618605 C77.9214884,29.807907 75.6042791,30.7809302 72.648,30.7809302 C70.7856744,30.7809302 69.1447442,30.3325581 67.7261395,29.4330233 C66.3075349,28.5353488 65.220093,27.2469767 64.4647442,25.5669767 C63.7093953,23.8869767 63.3307907,21.9465116 63.3307907,19.7465116 C63.3307907,16.2823256 64.1717209,13.5837209 65.8507907,11.6506977 C67.5307907,9.71674419 69.835907,8.75023256 72.7652093,8.75023256 C75.6824186,8.75023256 77.9707907,9.72976744 79.6303256,11.6897674 C81.2907907,13.6488372 82.1214884,16.3353488 82.1214884,19.7465116 Z" id="Fill-2" fill="#333333"></path>
                            <g id="Group-6" transform="translate(86.511628, 8.372093)">
                                <mask id="mask-2" fill="white">
                                    <use xlink:href="#path-1"></use>
                                </mask>
                                <g id="Clip-5"></g>
                                <path d="M9.17153488,20.6904186 C11.3454884,20.6904186 13.0282791,19.8829767 14.219907,18.268093 C15.4115349,16.6541395 16.0068837,14.3946047 16.0068837,11.4913488 C16.0068837,5.25413953 13.7547907,2.136 9.24967442,2.136 C6.77525581,2.136 4.95944186,2.816 3.80037209,4.17693023 C2.64037209,5.53786047 2.06176744,7.75460465 2.06176744,10.8271628 L2.06176744,11.4522791 C2.06176744,14.7732093 2.61804651,17.1434419 3.73153488,18.5620465 C4.84502326,19.9806512 6.65804651,20.6904186 9.17153488,20.6904186 M9.20967442,22.4094884 C5.94176744,22.4094884 3.55944186,21.1853023 2.06176744,18.7369302 L1.92502326,18.7369302 L1.98362791,20.3778605 C2.03572093,21.3415814 2.06176744,22.3964651 2.06176744,23.5415814 L2.06176744,31.628093 L0.127813953,31.628093 L0.127813953,0.788093023 L1.76874419,0.788093023 L2.13990698,3.81506977 L2.25618605,3.81506977 C3.71572093,1.52390698 6.04688372,0.377860465 9.24967442,0.377860465 C12.1138605,0.377860465 14.2980465,1.31925581 15.8022326,3.20018605 C17.3054884,5.08204651 18.0580465,7.81972093 18.0580465,11.4132093 C18.0580465,14.9025116 17.2664186,17.6085581 15.6850233,19.5285581 C14.1026977,21.4485581 11.9436279,22.4094884 9.20967442,22.4094884" id="Fill-4" fill="#333333" mask="url(#mask-2)"></path>
                            </g>
                            <mask id="mask-4" fill="white">
                                <use xlink:href="#path-3"></use>
                            </mask>
                            <g id="Clip-8"></g>
                            <path d="M109.220465,30.3906977 L111.154419,30.3906977 L111.154419,9.16093023 L109.220465,9.16093023 L109.220465,30.3906977 Z M108.946977,3.26232558 C108.946977,2.01209302 109.35814,1.38697674 110.176744,1.38697674 C110.581395,1.38697674 110.896744,1.54976744 111.124651,1.87534884 C111.352558,2.20093023 111.466977,2.66325581 111.466977,3.26232558 C111.466977,3.84837209 111.352558,4.31069767 111.124651,4.64837209 C110.896744,4.98697674 110.581395,5.15627907 110.176744,5.15627907 C109.35814,5.15627907 108.946977,4.52465116 108.946977,3.26232558 L108.946977,3.26232558 Z" id="Fill-7" fill="#333333" mask="url(#mask-4)"></path>
                            <path d="M125.539628,30.7812093 C122.505209,30.7812093 120.129395,29.824 118.410326,27.9105116 C116.691256,25.996093 115.831721,23.3272558 115.831721,19.9030698 C115.831721,16.3867907 116.723814,13.6491163 118.508,11.6900465 C120.292186,9.73004651 122.733116,8.7495814 125.831721,8.7495814 C127.66893,8.7495814 129.42614,9.0695814 131.10614,9.70772093 L130.578698,11.4258605 C128.742419,10.8137674 127.148,10.5077209 125.793581,10.5077209 C123.18986,10.5077209 121.216837,11.3114419 119.875442,12.919814 C118.534977,14.528186 117.863349,16.8435349 117.863349,19.864 C117.863349,22.728186 118.534977,24.9709767 119.875442,26.5914419 C121.216837,28.2128372 123.091256,29.0230698 125.500558,29.0230698 C127.42707,29.0230698 129.217767,28.6779535 130.871721,27.9886512 L130.871721,29.7858605 C129.517302,30.4491163 127.739628,30.7812093 125.539628,30.7812093" id="Fill-9" fill="#333333" mask="url(#mask-4)"></path>
                            <path d="M140.036372,15.7812093 C140.036372,17.1356279 140.384279,18.1774884 141.081023,18.9058605 C141.777767,19.636093 142.776837,19.999814 144.080093,19.999814 C146.735907,19.999814 148.064279,18.5812093 148.064279,15.7421395 C148.064279,14.3356279 147.734047,13.251907 147.077302,12.4900465 C146.419628,11.7291163 145.420558,11.3477209 144.080093,11.3477209 C142.751721,11.3477209 141.745209,11.7263256 141.062419,12.4807442 C140.377767,13.236093 140.036372,14.3356279 140.036372,15.7812093 L140.036372,15.7812093 Z M138.064279,33.7495814 C138.064279,34.7393488 138.50893,35.5012093 139.401023,36.0351628 C140.293116,36.5691163 141.54707,36.836093 143.161023,36.836093 C145.661488,36.836093 147.523814,36.4779535 148.74707,35.7616744 C149.971256,35.0453953 150.583349,34.0946977 150.583349,32.9105116 C150.583349,31.9728372 150.248465,31.3049302 149.577767,30.9086512 C148.90614,30.5105116 147.659628,30.3123721 145.836372,30.3123721 L142.361023,30.3123721 C141.045674,30.3123721 140.000093,30.6212093 139.22614,31.239814 C138.451256,31.8584186 138.064279,32.6956279 138.064279,33.7495814 L138.064279,33.7495814 Z M155.036372,8.78865116 L155.036372,11.3086512 L151.345209,11.9923721 C151.683814,12.448186 151.962884,13.008186 152.185209,13.6714419 C152.406605,14.3356279 152.517302,15.0388837 152.517302,15.7812093 C152.517302,18.008186 151.74893,19.7588837 150.211256,21.0351628 C148.675442,22.3123721 146.560093,22.9495814 143.864279,22.9495814 C143.174047,22.9495814 142.54893,22.8974884 141.98986,22.7933023 C141.000093,23.4053953 140.505209,24.1216744 140.505209,24.9421395 C140.505209,25.4370233 140.735907,25.8072558 141.198233,26.0546977 C141.660558,26.3030698 142.50986,26.4258605 143.74707,26.4258605 L147.517302,26.4258605 C149.899628,26.4258605 151.70986,26.9337674 152.94614,27.9486512 C154.183349,28.9644651 154.801953,30.4295814 154.801953,32.344 C154.801953,34.7923721 153.792651,36.679814 151.774047,38.008186 C149.756372,39.3356279 146.839163,39.999814 143.024279,39.999814 C140.081953,39.999814 137.836372,39.479814 136.286605,38.4370233 C134.736837,37.3951628 133.961953,35.9114419 133.961953,33.984 C133.961953,32.6565581 134.382419,31.5393488 135.221488,30.6351628 C136.062419,29.7300465 137.236372,29.1012093 138.74707,28.7495814 C138.134977,28.4891163 137.630791,28.0695814 137.233581,27.4900465 C136.836372,26.9114419 136.638233,26.3030698 136.638233,25.664 C136.638233,24.8574884 136.86614,24.1728372 137.321023,23.6137674 C137.776837,23.0537674 138.454977,22.5002791 139.352651,21.9533023 C138.233581,21.4714419 137.324744,20.6863256 136.628,19.5988837 C135.931256,18.5133023 135.583349,17.239814 135.583349,15.7812093 C135.583349,13.4370233 136.321953,11.6212093 137.800093,10.3328372 C139.278233,9.04353488 141.383349,8.39795349 144.118233,8.39795349 C144.730326,8.39795349 145.371256,8.44074419 146.041953,8.52539535 C146.712651,8.61004651 147.217767,8.6984186 147.555442,8.78865116 L155.036372,8.78865116 Z" id="Fill-10" fill="#333333" mask="url(#mask-4)"></path>
                            <path d="M168.94893,8.3984186 C169.872651,8.3984186 170.634512,8.46353488 171.233581,8.59376744 L170.784279,12.871907 C170.133116,12.7156279 169.455907,12.6374884 168.752651,12.6374884 C166.917302,12.6374884 165.42986,13.2356279 164.290326,14.4337674 C163.150791,15.631907 162.580558,17.1872558 162.580558,19.1016744 L162.580558,30.3909767 L157.991721,30.3909767 L157.991721,8.78911628 L161.585209,8.78911628 L162.18986,12.5984186 L162.424279,12.5984186 C163.141488,11.3091163 164.075442,10.2867907 165.228,9.53144186 C166.379628,8.77609302 167.620558,8.3984186 168.94893,8.3984186" id="Fill-11" fill="#333333" mask="url(#mask-4)"></path>
                            <path d="M179.797395,27.2655814 C181.464372,27.2655814 182.801116,26.8004651 183.810419,25.8693023 C184.819721,24.9381395 185.324837,23.6330233 185.324837,21.9530233 L185.324837,20.0776744 L182.550884,20.1948837 C180.389953,20.2730233 178.81693,20.6348837 177.834605,21.2786047 C176.851349,21.924186 176.360186,22.9102326 176.360186,24.2386047 C176.360186,25.2023256 176.645767,25.9474419 177.219721,26.4739535 C177.792744,27.0023256 178.652279,27.2655814 179.797395,27.2655814 L179.797395,27.2655814 Z M186.633674,30.3902326 L185.715535,27.3827907 L185.559256,27.3827907 C184.517395,28.6981395 183.469023,29.5930233 182.41414,30.0683721 C181.360186,30.5427907 180.005767,30.7809302 178.351814,30.7809302 C176.229953,30.7809302 174.573209,30.207907 173.381581,29.0627907 C172.189953,27.9167442 171.594605,26.2962791 171.594605,24.1995349 C171.594605,21.9734884 172.420651,20.2934884 174.075535,19.1604651 C175.728558,18.0274419 178.247628,17.4088372 181.633674,17.3046512 L185.362977,17.1874419 L185.362977,16.035814 C185.362977,14.6553488 185.042047,13.6227907 184.396465,12.94 C183.752744,12.2553488 182.753674,11.9139535 181.399256,11.9139535 C180.292279,11.9139535 179.231814,12.0776744 178.216,12.4023256 C177.200186,12.727907 176.222512,13.112093 175.284837,13.5548837 L173.801116,10.2730233 C174.972279,9.66186047 176.25507,9.19581395 177.648558,8.87674419 C179.042047,8.55860465 180.357395,8.39860465 181.594605,8.39860465 C184.341581,8.39860465 186.41507,8.99767442 187.81507,10.1948837 C189.21414,11.3939535 189.914605,13.2748837 189.914605,15.8404651 L189.914605,30.3902326 L186.633674,30.3902326 Z" id="Fill-12" fill="#333333" mask="url(#mask-4)"></path>
                            <path d="M203.924372,12.1484651 C202.101116,12.1484651 200.769953,12.6824186 199.929953,13.7503256 C199.090884,14.8182326 198.670419,16.5233488 198.670419,18.8675349 L198.670419,19.5512558 C198.670419,22.1810233 199.087163,24.0852093 199.919721,25.263814 C200.75414,26.4424186 202.11507,27.0312558 204.002512,27.0312558 C205.591349,27.0312558 206.814605,26.3810233 207.67414,25.0777674 C208.533674,23.7763721 208.963442,21.9214884 208.963442,19.512186 C208.963442,17.0898605 208.536465,15.2573023 207.684372,14.0135814 C206.831349,12.7707907 205.577395,12.1484651 203.924372,12.1484651 M205.03786,30.7810233 C202.303907,30.7810233 200.181116,29.7986977 198.670419,27.832186 L198.39786,27.832186 C198.579256,29.6545116 198.670419,30.7614884 198.670419,31.152186 L198.670419,39.9996279 L194.080651,39.9996279 L194.080651,8.78939535 L197.791349,8.78939535 C197.896465,9.19311628 198.110419,10.155907 198.436,11.6796279 L198.670419,11.6796279 C200.102977,9.49265116 202.250884,8.39869767 205.116,8.39869767 C207.810884,8.39869767 209.911349,9.37544186 211.414605,11.328 C212.918791,13.2814884 213.670419,16.0228837 213.670419,19.5512558 C213.670419,23.0796279 212.904837,25.8340465 211.375535,27.8126512 C209.845302,29.792186 207.732744,30.7810233 205.03786,30.7810233" id="Fill-13" fill="#333333" mask="url(#mask-4)"></path>
                            <path d="M236.407163,30.3906047 L231.79786,30.3906047 L231.79786,17.1096744 C231.79786,15.4436279 231.462047,14.199907 230.791349,13.3794419 C230.120651,12.5589767 229.056465,12.1487442 227.59786,12.1487442 C225.671349,12.1487442 224.255535,12.7245581 223.350419,13.8771163 C222.444372,15.0287442 221.992279,16.959907 221.992279,19.6687442 L221.992279,30.3906047 L217.402512,30.3906047 L217.402512,-9.30232558e-05 L221.992279,-9.30232558e-05 L221.992279,7.71525581 C221.992279,8.95246512 221.91414,10.2733953 221.75786,11.679907 L222.050884,11.679907 C222.676,10.6389767 223.545767,9.83060465 224.658326,9.2575814 C225.771814,8.68548837 227.070419,8.39804651 228.55507,8.39804651 C233.789488,8.39804651 236.407163,11.0352558 236.407163,16.3087442 L236.407163,30.3906047 Z" id="Fill-14" fill="#333333" mask="url(#mask-4)"></path>
                            <path d="M18.3722791,37.4746977 C18.3722791,37.4746977 15.231814,34.1751628 10.8262326,31.6467907 C5.75832558,28.7388837 0.697860465,29.8877209 0.697860465,29.8877209 L0.697860465,2.12586047 C0.697860465,2.12586047 7.1387907,2.31376744 11.8662326,5.67376744 C16.6187907,9.05144186 18.3722791,12.9826047 18.3722791,12.9826047 L18.3722791,36.7379535 L18.3722791,29.8877209 L18.3722791,12.9826047 L18.3722791,37.4746977 Z" id="Fill-15" fill="#FFFFFF" mask="url(#mask-4)"></path>
                            <path d="M3.23488372,28.9616744 C5.27023256,28.9616744 8.20976744,29.3412093 11.1725581,31.0416744 C14.0348837,32.6844651 16.3530233,34.6230698 17.6739535,35.8323721 L17.6739535,13.1421395 C17.3316279,12.4593488 15.5195349,9.12632558 11.4627907,6.24260465 C7.87023256,3.69004651 3.16976744,3.03423256 1.39488372,2.87330233 L1.39488372,29.0695814 C1.85627907,29.0137674 2.48325581,28.9616744 3.23488372,28.9616744 M18.3716279,38.171907 C18.1846512,38.171907 18.0013953,38.0965581 17.8665116,37.956093 C17.835814,37.9235349 14.7390698,34.6965581 10.4786047,32.251907 C5.72511628,29.5235349 0.899069767,30.5588837 0.850697674,30.5691163 C0.642325581,30.6156279 0.426511628,30.5653953 0.261860465,30.4323721 C0.0972093023,30.2993488 -0.000465116279,30.1002791 -0.000465116279,29.888186 L-0.000465116279,2.12539535 C-0.000465116279,1.93655814 0.0758139535,1.75702326 0.211627907,1.62493023 C0.346511628,1.49469767 0.534418605,1.43051163 0.717674419,1.42772093 C0.989302326,1.43609302 7.4255814,1.66213953 12.2711628,5.10493023 C17.0144186,8.47609302 18.8525581,12.3533023 19.0013953,12.6816744 C19.0451163,12.7728372 19.0693023,12.8742326 19.0693023,12.9821395 L19.0693023,37.4742326 C19.0693023,37.759814 18.8962791,38.0156279 18.6311628,38.1226047 C18.5474419,38.156093 18.4590698,38.171907 18.3716279,38.171907" id="Fill-16" fill="#333333" mask="url(#mask-4)"></path>
                            <path d="M3.55367442,26.2820465 C1.87367442,26.1713488 5.10437209,23.5173953 6.02716279,24.9397209 C6.94995349,26.3620465 7.67925581,26.4736744 8.93506977,25.9620465 C10.1908837,25.4494884 11.4085581,25.800186 11.7676279,27.1657674 C12.1257674,28.5313488 14.028093,28.0020465 14.9248372,28.0792558 C15.8215814,28.1555349 15.9304186,30.4494884 15.9304186,31.1322791 C15.9304186,31.8150698 13.5257674,26.9369302 3.55367442,26.2820465" id="Fill-17" fill="#FFBA00" mask="url(#mask-4)"></path>
                            <path d="M3.55367442,20.7124651 C1.87367442,20.5822326 5.10437209,17.4436279 6.02716279,19.1245581 C6.94995349,20.8064186 7.67925581,20.9394419 8.93506977,20.3338605 C10.1908837,19.7282791 11.4085581,20.1422326 11.7676279,21.7571163 C12.1257674,23.372 14.028093,22.7468837 14.9248372,22.8371163 C15.8215814,22.9282791 15.9304186,25.639907 15.9304186,26.4473488 C15.9304186,27.2547907 13.5257674,21.4873488 3.55367442,20.7124651" id="Fill-18" fill="#99CC33" mask="url(#mask-4)"></path>
                            <path d="M3.55367442,15.2774884 C1.87367442,15.136093 5.10437209,11.739814 6.02716279,13.5593488 C6.94995349,15.379814 7.67925581,15.5230698 8.93506977,14.8672558 C10.1908837,14.2123721 11.4085581,14.6607442 11.7676279,16.4077209 C12.1257674,18.1546977 14.028093,17.4784186 14.9248372,17.576093 C15.8215814,17.6746977 15.9304186,20.6095814 15.9304186,21.4830698 C15.9304186,22.3565581 13.5257674,16.1156279 3.55367442,15.2774884" id="Fill-19" fill="#EB4E3C" mask="url(#mask-4)"></path>
                            <path d="M3.55367442,9.75469767 C1.87367442,9.59655814 5.10437209,5.79469767 6.02716279,7.83190698 C6.94995349,9.86911628 7.67925581,10.0291163 8.93506977,9.29609302 C10.1908837,8.56213953 11.4085581,9.06446512 11.7676279,11.019814 C12.1257674,12.976093 14.028093,12.2179535 14.9248372,12.3277209 C15.8215814,12.4374884 15.9304186,15.7230698 15.9304186,16.7007442 C15.9304186,17.6784186 13.5257674,10.6933023 3.55367442,9.75469767" id="Fill-20" fill="#00BFDF" mask="url(#mask-4)"></path>
                            <path d="M18.3722791,37.4746977 C18.3722791,37.4746977 21.5127442,34.1751628 25.9183256,31.6467907 C30.9862326,28.7388837 36.0466977,29.8877209 36.0466977,29.8877209 L36.0466977,2.12586047 C36.0466977,2.12586047 29.6057674,2.31376744 24.8783256,5.67376744 C20.1257674,9.05144186 18.3722791,12.9826047 18.3722791,12.9826047 L18.3722791,36.7379535 L18.3722791,29.8877209 L18.3722791,12.9826047 L18.3722791,37.4746977 Z" id="Fill-21" fill="#FFFFFF" mask="url(#mask-4)"></path>
                            <path d="M19.0697674,13.1422326 L19.0697674,35.8324651 C20.3916279,34.6231628 22.7088372,32.6845581 25.5711628,31.0417674 C29.627907,28.7133953 33.64,28.8594419 35.3488372,29.0696744 L35.3488372,2.87339535 C33.5748837,3.03432558 28.8734884,3.69013953 25.2827907,6.24269767 C21.224186,9.1264186 19.412093,12.4594419 19.0697674,13.1422326 M18.372093,38.172 C18.2846512,38.172 18.1972093,38.156186 18.1134884,38.1226977 C17.8483721,38.0166512 17.6744186,37.759907 17.6744186,37.4743256 L17.6744186,12.9822326 C17.6744186,12.8743256 17.6986047,12.7729302 17.7423256,12.6817674 C17.8911628,12.3533953 19.7293023,8.47525581 24.4744186,5.10502326 C29.3190698,1.66223256 35.7553488,1.43618605 36.0269767,1.42781395 C36.2065116,1.42781395 36.3981395,1.4947907 36.532093,1.62502326 C36.667907,1.75711628 36.744186,1.93665116 36.744186,2.12548837 L36.744186,29.8882791 C36.744186,30.0994419 36.6474419,30.2994419 36.4827907,30.4324651 C36.3162791,30.5645581 36.1013953,30.6157209 35.8930233,30.5682791 C35.8446512,30.5580465 31.0223256,29.5226977 26.2651163,32.252 C21.9972093,34.7013023 18.907907,37.9236279 18.8772093,37.9552558 C18.7423256,38.0966512 18.5590698,38.172 18.372093,38.172" id="Fill-22" fill="#333333" mask="url(#mask-4)"></path>
                            <path d="M20.8130233,31.8305116 C20.6725581,31.8305116 20.5293023,31.7877209 20.4065116,31.6984186 C20.0939535,31.4742326 20.0223256,31.0379535 20.2483721,30.7253953 C20.4362791,30.464 24.9404651,24.3365581 33.135814,24.3365581 L33.1944186,24.3365581 C33.5795349,24.3384186 33.8902326,24.651907 33.8893023,25.0370233 C33.8883721,25.4212093 33.575814,25.731907 33.1916279,25.731907 L33.1367442,25.731907 C25.6455814,25.731907 21.4213953,31.4816744 21.3795349,31.5402791 C21.2437209,31.7300465 21.0297674,31.8305116 20.8130233,31.8305116" id="Fill-23" fill="#333333" mask="url(#mask-4)"></path>
                            <path d="M20.8130233,26.8976744 C20.6706977,26.8976744 20.5255814,26.8539535 20.4018605,26.7618605 C20.0911628,26.5348837 20.0232558,26.0995349 20.2511628,25.7897674 C20.4223256,25.5553488 24.5395349,20.0511628 33.1153488,19.1069767 C33.5069767,19.0502326 33.8427907,19.3413953 33.8846512,19.7237209 C33.9274419,20.1069767 33.6511628,20.4511628 33.267907,20.4930233 C25.3283721,21.3674419 21.4148837,26.5618605 21.375814,26.6139535 C21.2390698,26.8 21.0269767,26.8976744 20.8130233,26.8976744" id="Fill-24" fill="#333333" mask="url(#mask-4)"></path>
                            <path d="M20.8130233,22.0802791 C20.6809302,22.0802791 20.5469767,22.0430698 20.4288372,21.964 C20.107907,21.7509767 20.0195349,21.3202791 20.2316279,20.9993488 C20.3981395,20.748186 24.3860465,14.8533023 33.1088372,13.8123721 C33.4976744,13.7751628 33.8381395,14.0402791 33.8846512,14.4235349 C33.9302326,14.8058605 33.6567442,15.1528372 33.2744186,15.1993488 C25.2176744,16.1602791 21.4325581,21.7128372 21.3953488,21.7695814 C21.2604651,21.9714419 21.0390698,22.0802791 20.8130233,22.0802791" id="Fill-25" fill="#333333" mask="url(#mask-4)"></path>
                            <path d="M20.8130233,16.0910698 C20.667907,16.0910698 20.52,16.0445581 20.3944186,15.9506047 C20.0865116,15.7189767 20.024186,15.2817674 20.255814,14.9738605 C20.4548837,14.7106047 25.2065116,8.50595349 33.1190698,7.68362791 C33.5032558,7.64083721 33.8465116,7.92269767 33.8855814,8.30595349 C33.9255814,8.6892093 33.6465116,9.03153488 33.2632558,9.07153488 C25.9693023,9.82967442 21.415814,15.7543256 21.3711628,15.8129302 C21.2334884,15.9943256 21.0251163,16.0910698 20.8130233,16.0910698" id="Fill-26" fill="#333333" mask="url(#mask-4)"></path>
                        </g>
                    </g>
                    <text id="BETA" font-family="ArialMT, Arial" font-size="13" font-weight="normal" fill="#990000">
                        <tspan x="203" y="44">BETA</tspan>
                    </text>
                </g>
            </g>
        </g>
    </g>
</svg>