<?xml version="1.0" encoding="UTF-8" standalone="no"?>
<svg width="250px" height="58px" viewBox="0 0 250 58" version="1.1" xmlns="http://www.w3.org/2000/svg" xmlns:xlink="http://www.w3.org/1999/xlink">
    <!-- Generator: Sketch 40.3 (33839) - http://www.bohemiancoding.com/sketch -->
    <title>ITHAKA Family Logo</title>
    <desc>Created with Sketch.</desc>
    <defs>
        <polygon id="path-1" points="0 57.1440141 249.961268 57.1440141 249.961268 0.703873239 0 0.703873239"></polygon>
    </defs>
    <g id="Page-1" stroke="none" stroke-width="1" fill="none" fill-rule="evenodd">
        <g id="Desktop-HD---Home" transform="translate(-60.000000, -1880.000000)">
            <g id="ITHAKA-Family-Logo" transform="translate(60.000000, 1880.000000)">
                <g id="Page-1">
                    <path d="M51.0783803,5.72387324 C51.2811972,5.94570423 51.4685211,6.09288732 51.6396479,6.16612676 C51.8100704,6.23866197 52.0065493,6.27528169 52.2290845,6.27528169 C52.343169,6.27528169 52.4551408,6.25485915 52.5664085,6.21330986 C52.6776761,6.17246479 52.7769718,6.11119718 52.8657042,6.02880282 C52.9544366,5.94570423 53.0262676,5.84288732 53.0797887,5.71894366 C53.1333099,5.59570423 53.1607746,5.45133803 53.1607746,5.2865493 L53.1607746,0.87528169 L54.358662,0.87528169 L54.358662,5.3534507 C54.358662,5.73373239 54.2966901,6.05415493 54.1734507,6.31330986 C54.049507,6.57316901 53.8896479,6.78302817 53.693169,6.94147887 C53.4966901,7.09922535 53.2748592,7.21330986 53.0276761,7.28373239 C52.7797887,7.35274648 52.5333099,7.38795775 52.2861268,7.38795775 C51.7917606,7.38795775 51.3847183,7.31049296 51.0642958,7.15485915 C50.7438732,6.99992958 50.4706338,6.77598592 50.2424648,6.48443662 L51.0783803,5.72387324 L51.0783803,5.72387324 Z" id="Fill-1" fill="#414142"></path>
                    <path d="M56.298169,5.42950704 C56.3735211,5.51823944 56.4643662,5.61190141 56.5692958,5.70978873 C56.6735211,5.80838028 56.7904225,5.89992958 56.9207042,5.98584507 C57.0502817,6.07105634 57.1960563,6.14288732 57.3580282,6.19992958 C57.5192958,6.25697183 57.7016901,6.28514085 57.904507,6.28514085 C58.2791549,6.28514085 58.5559155,6.19992958 58.7369014,6.02880282 C58.9171831,5.85697183 59.0080282,5.65133803 59.0080282,5.41049296 C59.0080282,5.27739437 58.9819718,5.15838028 58.9312676,5.05415493 C58.8805634,4.94922535 58.7946479,4.85767606 58.6749296,4.77809859 C58.5538028,4.69922535 58.3967606,4.62739437 58.204507,4.56401408 C58.0108451,4.50133803 57.7714085,4.44077465 57.4861972,4.38373239 C57.1946479,4.32669014 56.9425352,4.23795775 56.7298592,4.11753521 C56.5178873,3.99711268 56.341831,3.85485915 56.2030986,3.6893662 C56.0629577,3.52528169 55.9587324,3.3421831 55.8890141,3.14288732 C55.8192958,2.94359155 55.7847887,2.7393662 55.7847887,2.53021127 C55.7847887,2.28866197 55.8291549,2.05908451 55.9171831,1.84007042 C56.0066197,1.62176056 56.1425352,1.42809859 56.326338,1.26049296 C56.5101408,1.09288732 56.7397183,0.957676056 57.0164789,0.856267606 C57.2911268,0.754859155 57.6157746,0.70415493 57.9897183,0.70415493 C58.3256338,0.70415493 58.6143662,0.742887324 58.8552113,0.818239437 C59.0960563,0.895 59.2974648,0.983732394 59.4587324,1.08443662 C59.6207042,1.1865493 59.7460563,1.28584507 59.8340845,1.38443662 C59.9228169,1.48302817 59.9869014,1.5534507 60.0242254,1.59852113 L59.235493,2.3393662 C59.2038028,2.31401408 59.1538028,2.26823944 59.0833803,2.20204225 C59.0129577,2.13514085 58.926338,2.06964789 58.8221127,2.00697183 C58.7178873,1.94359155 58.5925352,1.8865493 58.4467606,1.83514085 C58.3009859,1.78514085 58.135493,1.75978873 57.9523944,1.75978873 C57.7869014,1.75978873 57.6446479,1.78161972 57.5242254,1.82669014 C57.4038028,1.87035211 57.3038028,1.92739437 57.2249296,1.99711268 C57.1453521,2.06753521 57.0869014,2.145 57.0488732,2.23021127 C57.0108451,2.31542254 56.9911268,2.39640845 56.9911268,2.47316901 C56.9911268,2.5865493 57.0122535,2.68795775 57.0530986,2.77669014 C57.0946479,2.86542254 57.1643662,2.94852113 57.2622535,3.02387324 C57.3615493,3.09992958 57.4960563,3.16823944 57.6664789,3.22880282 C57.8383099,3.28866197 58.0530986,3.34429577 58.3129577,3.395 C58.5608451,3.44570423 58.7988732,3.52176056 59.026338,3.62316901 C59.254507,3.72457746 59.4559155,3.85626761 59.6298592,4.01753521 C59.804507,4.17950704 59.9439437,4.37598592 60.048169,4.60697183 C60.1530986,4.83866197 60.2052113,5.11612676 60.2052113,5.4393662 C60.2052113,5.71753521 60.148169,5.97457746 60.0340845,6.20838028 C59.92,6.44288732 59.7615493,6.64922535 59.5587324,6.82669014 C59.3559155,7.00415493 59.1150704,7.14288732 58.8361972,7.24007042 C58.5573239,7.33866197 58.2523944,7.38795775 57.9242254,7.38795775 C57.6059155,7.38795775 57.32,7.34992958 57.0629577,7.27387324 C56.8066197,7.1978169 56.5749296,7.10133803 56.3692958,6.98373239 C56.163662,6.86683099 55.9861972,6.73795775 55.8369014,6.59852113 C55.6876056,6.45978873 55.5622535,6.32598592 55.4615493,6.19992958 L56.298169,5.42950704 Z" id="Fill-3" fill="#414142"></path>
                    <polygon id="Fill-5" fill="#414142" points="62.9621831 1.93112676 60.8135915 1.93112676 60.8135915 0.875492958 66.308662 0.875492958 66.308662 1.93112676 64.1600704 1.93112676 64.1600704 7.21704225 62.9621831 7.21704225"></polygon>
                    <path d="M69.9122535,6.25683099 C70.2221127,6.25683099 70.5052113,6.19626761 70.7580282,6.07584507 C71.0115493,5.95542254 71.2270423,5.79274648 71.404507,5.58640845 C71.5819718,5.38077465 71.7178873,5.14133803 71.8129577,4.86809859 C71.9080282,4.59626761 71.9559155,4.31035211 71.9559155,4.01246479 C71.9559155,3.70894366 71.9080282,3.42232394 71.8129577,3.15260563 C71.7178873,2.88288732 71.5819718,2.64697183 71.404507,2.44415493 C71.2270423,2.24133803 71.0115493,2.08147887 70.7580282,1.96387324 C70.5052113,1.84697183 70.2221127,1.7878169 69.9122535,1.7878169 C69.5946479,1.7878169 69.3108451,1.84697183 69.0608451,1.96387324 C68.8108451,2.08147887 68.5967606,2.24133803 68.42,2.44415493 C68.241831,2.64697183 68.1059155,2.88288732 68.0108451,3.15260563 C67.9150704,3.42232394 67.8685915,3.70894366 67.8685915,4.01246479 C67.8685915,4.31035211 67.9150704,4.59626761 68.0108451,4.86809859 C68.1059155,5.14133803 68.241831,5.38077465 68.42,5.58640845 C68.5967606,5.79274648 68.8108451,5.95542254 69.0608451,6.07584507 C69.3108451,6.19626761 69.5946479,6.25683099 69.9122535,6.25683099 M69.9122535,7.3878169 C69.4495775,7.3878169 69.0178873,7.30049296 68.6192958,7.12584507 C68.22,6.95190141 67.8714085,6.71246479 67.5735211,6.40894366 C67.2756338,6.10401408 67.0411268,5.74908451 66.87,5.3434507 C66.6988732,4.93852113 66.6129577,4.50401408 66.6129577,4.04133803 C66.6129577,3.57866197 66.6988732,3.14485915 66.87,2.73922535 C67.0411268,2.33359155 67.2742254,1.98007042 67.5685915,1.67866197 C67.8629577,1.37795775 68.2122535,1.13992958 68.613662,0.96528169 C69.0171831,0.791338028 69.4495775,0.704014085 69.9122535,0.704014085 C70.3742254,0.704014085 70.8059155,0.791338028 71.2052113,0.96528169 C71.6038028,1.13992958 71.9523944,1.37795775 72.2502817,1.67866197 C72.5488732,1.98007042 72.7826761,2.33359155 72.954507,2.73922535 C73.1249296,3.14485915 73.2108451,3.57866197 73.2108451,4.04133803 C73.2108451,4.50401408 73.1249296,4.93852113 72.954507,5.3434507 C72.7826761,5.74908451 72.5488732,6.10401408 72.2502817,6.40894366 C71.9523944,6.71246479 71.6038028,6.95190141 71.2052113,7.12584507 C70.8059155,7.30049296 70.3742254,7.3878169 69.9122535,7.3878169" id="Fill-7" fill="#414142"></path>
                    <path d="M76.595493,3.72739437 C76.8997183,3.72739437 77.136338,3.63866197 77.3039437,3.46119718 C77.4715493,3.28373239 77.5553521,3.06823944 77.5553521,2.81471831 C77.5553521,2.5421831 77.4666197,2.32035211 77.2898592,2.14992958 C77.1116901,1.97880282 76.8807042,1.89288732 76.595493,1.89288732 L75.6356338,1.89288732 L75.6356338,3.72739437 L76.595493,3.72739437 Z M74.4849296,0.87528169 L76.5856338,0.87528169 C76.9856338,0.87528169 77.3243662,0.93584507 77.6039437,1.05626761 C77.8821127,1.17669014 78.1067606,1.33091549 78.2785915,1.51683099 C78.4497183,1.70415493 78.5750704,1.90838028 78.6539437,2.13021127 C78.7328169,2.35274648 78.7729577,2.56471831 78.7729577,2.76753521 C78.7729577,3.16683099 78.6856338,3.52035211 78.5116901,3.82739437 C78.3370423,4.13514085 78.0694366,4.38091549 77.708169,4.56401408 L79.1715493,7.21683099 L77.8222535,7.21683099 L76.5384507,4.71612676 L75.6356338,4.71612676 L75.6356338,7.21683099 L74.4849296,7.21683099 L74.4849296,0.87528169 Z" id="Fill-9" fill="#414142"></path>
                    <mask id="mask-2" fill="white">
                        <use xlink:href="#path-1"></use>
                    </mask>
                    <g id="Clip-12"></g>
                    <path d="M82.0901408,7.2165493 L83.2126761,7.2165493 L83.2126761,2.75739437 L82.0901408,2.75739437 L82.0901408,7.2165493 Z M82.0528169,2.05457746 L83.2507042,2.05457746 L83.2507042,0.875704225 L82.0528169,0.875704225 L82.0528169,2.05457746 Z" id="Fill-11" fill="#414142" mask="url(#mask-2)"></path>
                    <path d="M85.0090845,5.94253521 C85.1485211,6.08197183 85.3238732,6.19746479 85.5372535,6.28971831 C85.7492254,6.38197183 85.9921831,6.42704225 86.2640141,6.42704225 C86.5048592,6.42704225 86.6978169,6.39605634 86.8435915,6.33267606 C86.9900704,6.26929577 87.0626056,6.1643662 87.0626056,6.01859155 C87.0626056,5.95591549 87.0499296,5.89746479 87.0245775,5.84253521 C86.9992254,5.78901408 86.9457042,5.73690141 86.8633099,5.68619718 C86.7809155,5.63478873 86.666831,5.58478873 86.5203521,5.53408451 C86.3745775,5.48338028 86.1780986,5.42915493 85.9323239,5.37211268 C85.779507,5.33478873 85.6210563,5.28338028 85.4562676,5.22070423 C85.2907746,5.15732394 85.1379577,5.07 84.995,4.95943662 C84.8520423,4.84746479 84.7351408,4.71507042 84.6428873,4.55943662 C84.551338,4.40380282 84.5055634,4.21929577 84.5055634,4.00309859 C84.5055634,3.78197183 84.5590845,3.58338028 84.666831,3.40873239 C84.7752817,3.23478873 84.9154225,3.08901408 85.0900704,2.97140845 C85.2640141,2.85450704 85.4611972,2.7643662 85.679507,2.70028169 C85.8985211,2.63760563 86.1182394,2.60591549 86.3407746,2.60591549 C86.7330282,2.60591549 87.0675352,2.64676056 87.3428873,2.72985915 C87.6189437,2.81225352 87.8675352,2.93478873 88.0900704,3.10028169 L87.5097887,3.88901408 C87.3893662,3.80028169 87.2302113,3.72 87.0344366,3.64676056 C86.8379577,3.57422535 86.6069718,3.53760563 86.3407746,3.53760563 C86.0738732,3.53760563 85.888662,3.57774648 85.7844366,3.65661972 C85.679507,3.73549296 85.6273944,3.83197183 85.6273944,3.94605634 C85.6273944,4.08549296 85.7147183,4.19535211 85.888662,4.27422535 C86.0626056,4.35380282 86.3337324,4.43760563 86.701338,4.52633803 C86.9302113,4.57704225 87.1344366,4.63971831 87.3140141,4.71647887 C87.4957042,4.79253521 87.6506338,4.88760563 87.7809155,5.00169014 C87.910493,5.11577465 88.010493,5.25098592 88.0802113,5.40521127 C88.1499296,5.56084507 88.1851408,5.74676056 88.1851408,5.9615493 C88.1851408,6.17704225 88.1337324,6.37211268 88.0323239,6.54605634 C87.9309155,6.72070423 87.7928873,6.86788732 87.6189437,6.98830986 C87.445,7.10873239 87.2414789,7.20239437 87.010493,7.26929577 C86.779507,7.33619718 86.5330282,7.36859155 86.2738732,7.36859155 C85.8548592,7.36859155 85.4780986,7.31014085 85.1421831,7.19253521 C84.8069718,7.0756338 84.5372535,6.90309859 84.3344366,6.67492958 L85.0090845,5.94253521 Z" id="Fill-13" fill="#414142" mask="url(#mask-2)"></path>
                    <path d="M92.3106338,6.1234507 C92.5324648,6.30725352 92.8683803,6.39950704 93.3183803,6.39950704 C93.5219014,6.39950704 93.7021831,6.3593662 93.8599296,6.28049296 C94.0190845,6.20091549 94.1528873,6.09669014 94.2641549,5.96640845 C94.3754225,5.83683099 94.4599296,5.68964789 94.5162676,5.52415493 C94.5740141,5.36007042 94.6021831,5.18894366 94.6021831,5.01147887 C94.6021831,4.8206338 94.5817606,4.64316901 94.5402113,4.47838028 C94.498662,4.31429577 94.4324648,4.16992958 94.3402113,4.04598592 C94.248662,3.92274648 94.1296479,3.82415493 93.9838732,3.75161972 C93.8380986,3.67838028 93.6578169,3.64246479 93.4416197,3.64246479 C93.2711972,3.64246479 93.1162676,3.67838028 92.9761268,3.75161972 C92.8366901,3.82415493 92.7183803,3.9178169 92.6190845,4.03190141 C92.5219014,4.14598592 92.4451408,4.27133803 92.3909155,4.40725352 C92.3373944,4.54387324 92.3106338,4.67485915 92.3106338,4.80161972 L92.3106338,6.1234507 Z M91.198662,2.75795775 L92.2824648,2.75795775 L92.3106338,3.2621831 C92.3676761,3.19880282 92.439507,3.13190141 92.5247183,3.0621831 C92.6099296,2.99246479 92.711338,2.92908451 92.8282394,2.87204225 C92.9458451,2.815 93.0789437,2.76711268 93.2282394,2.72978873 C93.3775352,2.69176056 93.5437324,2.67274648 93.7275352,2.67274648 C94.0690845,2.67274648 94.3662676,2.73894366 94.6162676,2.87204225 C94.8669718,3.00514085 95.0740141,3.18049296 95.2388028,3.39950704 C95.4035915,3.6178169 95.526831,3.86711268 95.6099296,4.14598592 C95.6923239,4.42485915 95.733169,4.71359155 95.733169,5.01147887 C95.733169,5.36007042 95.6824648,5.65795775 95.5810563,5.90443662 C95.4796479,6.15161972 95.3528873,6.3678169 95.2007746,6.55091549 C94.9472535,6.85514085 94.670493,7.0678169 94.3690845,7.18823944 C94.0676761,7.30866197 93.7592254,7.36922535 93.4416197,7.36922535 C93.2958451,7.36922535 93.1711972,7.36288732 93.0662676,7.34950704 C92.9620423,7.33753521 92.8669718,7.31922535 92.7817606,7.29739437 C92.6958451,7.27556338 92.6169718,7.25021127 92.5437324,7.22204225 C92.4711972,7.19316901 92.3930282,7.16359155 92.3106338,7.13119718 L92.3106338,9.11852113 L91.198662,9.11852113 L91.198662,2.75795775 Z" id="Fill-14" fill="#414142" mask="url(#mask-2)"></path>
                    <path d="M99.450493,5.20119718 C99.3364085,5.19485915 99.2258451,5.18852113 99.1173944,5.1821831 C99.028662,5.17584507 98.9357042,5.17091549 98.8378169,5.16809859 C98.7385211,5.16457746 98.6547183,5.16316901 98.585,5.16316901 C98.2244366,5.16316901 97.9702113,5.23429577 97.8244366,5.37725352 C97.678662,5.51950704 97.6061268,5.68359155 97.6061268,5.86669014 C97.6061268,6.05683099 97.6744366,6.20612676 97.8103521,6.31316901 C97.9462676,6.42091549 98.1476761,6.47514085 98.4138732,6.47514085 C98.5476761,6.47514085 98.6751408,6.45260563 98.7990845,6.40894366 C98.9230282,6.36387324 99.0321831,6.30401408 99.1272535,6.22795775 C99.2230282,6.15190141 99.2997887,6.06387324 99.3603521,5.96176056 C99.4202113,5.86105634 99.450493,5.75260563 99.450493,5.63852113 L99.450493,5.20119718 Z M99.450493,6.79838028 C99.3300704,6.94485915 99.1455634,7.07373239 98.8990845,7.1878169 C98.6519014,7.30190141 98.3765493,7.35894366 98.0716197,7.35894366 C97.8878169,7.35894366 97.7054225,7.33077465 97.5258451,7.27373239 C97.3448592,7.21669014 97.1800704,7.1293662 97.0307746,7.01246479 C96.8821831,6.89485915 96.7617606,6.74415493 96.6702113,6.56105634 C96.5779577,6.37725352 96.5314789,6.16105634 96.5314789,5.91457746 C96.5314789,5.66035211 96.5793662,5.43429577 96.6744366,5.23429577 C96.7688028,5.035 96.9026056,4.86669014 97.0737324,4.73077465 C97.2448592,4.59485915 97.450493,4.49133803 97.6920423,4.42161972 C97.9328873,4.35190141 98.1990845,4.31669014 98.4906338,4.31669014 C98.5793662,4.31669014 98.6765493,4.31880282 98.7857042,4.32161972 C98.8927465,4.32514085 98.9969718,4.33007042 99.0990845,4.33570423 C99.213169,4.34204225 99.3300704,4.34908451 99.450493,4.35542254 L99.450493,4.25049296 C99.450493,4.02866197 99.3617606,3.85471831 99.1842958,3.72725352 C99.006831,3.60119718 98.7758451,3.5378169 98.4906338,3.5378169 C98.1737324,3.5378169 97.9202113,3.57866197 97.7300704,3.66105634 C97.5392254,3.7434507 97.3716197,3.8321831 97.2258451,3.92725352 L96.7124648,3.16669014 C96.800493,3.10330986 96.9026056,3.03852113 97.0166901,2.97161972 C97.1307746,2.90542254 97.2645775,2.84485915 97.4152817,2.79133803 C97.5680986,2.73711268 97.7441549,2.69274648 97.9434507,2.65823944 C98.1434507,2.62373239 98.3765493,2.60542254 98.6427465,2.60542254 C98.9272535,2.60542254 99.1857042,2.64556338 99.4166901,2.72443662 C99.6483803,2.80401408 99.8462676,2.91457746 100.011056,3.05753521 C100.175845,3.19978873 100.302606,3.37091549 100.392042,3.57091549 C100.48007,3.77091549 100.524437,3.98711268 100.524437,4.22161972 L100.524437,7.21669014 L99.478662,7.21669014 L99.450493,6.79838028 Z" id="Fill-15" fill="#414142" mask="url(#mask-2)"></path>
                    <path d="M101.799085,2.75774648 L102.873028,2.75774648 L102.901901,3.31901408 C102.952606,3.2556338 103.017394,3.18521127 103.096972,3.10985915 C103.175845,3.03380282 103.269507,2.96408451 103.376549,2.90070423 C103.485,2.83732394 103.610352,2.78309859 103.751901,2.73943662 C103.895563,2.6943662 104.058239,2.67253521 104.242042,2.67253521 C104.349789,2.67253521 104.446972,2.67887324 104.532183,2.6915493 C104.617394,2.70422535 104.704718,2.72605634 104.793451,2.75774648 L104.565282,3.81338028 C104.489225,3.78169014 104.411761,3.75985915 104.332887,3.74647887 C104.252606,3.73450704 104.159648,3.72746479 104.051901,3.72746479 C103.899789,3.72746479 103.754014,3.7528169 103.614577,3.80352113 C103.475845,3.85492958 103.354718,3.92746479 103.25331,4.02253521 C103.152606,4.11760563 103.07162,4.23169014 103.011056,4.36478873 C102.950493,4.49788732 102.920915,4.6471831 102.920915,4.81126761 L102.920915,7.21690141 L101.799085,7.21690141 L101.799085,2.75774648 Z" id="Fill-16" fill="#414142" mask="url(#mask-2)"></path>
                    <path d="M106.001056,3.67035211 L105.240493,3.67035211 L105.240493,2.75767606 L106.001056,2.75767606 L106.001056,1.31260563 L107.122887,1.31260563 L107.122887,2.75767606 L108.320775,2.75767606 L108.320775,3.67035211 L107.122887,3.67035211 L107.122887,5.61964789 C107.122887,5.87316901 107.165141,6.06753521 107.251056,6.20415493 C107.336268,6.34077465 107.474296,6.40908451 107.664437,6.40908451 C107.841901,6.40908451 107.982746,6.38373239 108.087676,6.33232394 C108.191901,6.28161972 108.292606,6.22176056 108.387676,6.15133803 L108.862324,6.84640845 C108.640493,7.03021127 108.422183,7.16119718 108.20669,7.24007042 C107.991197,7.31964789 107.750352,7.35908451 107.483451,7.35908451 C107.21162,7.35908451 106.980634,7.31964789 106.789789,7.24007042 C106.599648,7.16119718 106.446127,7.04922535 106.328521,6.9034507 C106.21162,6.75767606 106.127817,6.58161972 106.076408,6.37528169 C106.025704,6.16964789 106.001056,5.94288732 106.001056,5.69570423 L106.001056,3.67035211 Z" id="Fill-17" fill="#414142" mask="url(#mask-2)"></path>
                    <path d="M113.729648,6.39922535 C113.945141,6.39922535 114.131761,6.35626761 114.290915,6.27035211 C114.448662,6.18514085 114.580352,6.07246479 114.684577,5.93373239 C114.789507,5.79429577 114.866972,5.6421831 114.917676,5.47669014 C114.969085,5.31190141 114.993732,5.1478169 114.993732,4.98232394 C114.993732,4.82457746 114.969085,4.66049296 114.917676,4.49288732 C114.866972,4.32528169 114.789507,4.17316901 114.684577,4.03725352 C114.580352,3.9006338 114.448662,3.7893662 114.290915,3.70415493 C114.131761,3.61823944 113.945141,3.57528169 113.729648,3.57528169 C113.513451,3.57528169 113.326831,3.61823944 113.16838,3.70415493 C113.010634,3.7893662 112.878239,3.9006338 112.774014,4.03725352 C112.669085,4.17316901 112.592324,4.32528169 112.54162,4.49288732 C112.490211,4.66049296 112.464859,4.82457746 112.464859,4.98232394 C112.464859,5.1478169 112.490211,5.31190141 112.54162,5.47669014 C112.592324,5.6421831 112.669085,5.79429577 112.774014,5.93373239 C112.878239,6.07246479 113.010634,6.18514085 113.16838,6.27035211 C113.326831,6.35626761 113.513451,6.39922535 113.729648,6.39922535 M111.333873,4.98232394 C111.333873,4.65908451 111.393028,4.35415493 111.50993,4.06542254 C111.626831,3.77669014 111.790211,3.52528169 111.999366,3.30908451 C112.208521,3.09429577 112.45993,2.92246479 112.755,2.79640845 C113.05007,2.66894366 113.374718,2.60556338 113.729648,2.60556338 C114.084577,2.60556338 114.409225,2.66894366 114.704296,2.79640845 C114.999366,2.92246479 115.250775,3.09429577 115.45993,3.30908451 C115.669085,3.52528169 115.831761,3.77669014 115.949366,4.06542254 C116.066268,4.35415493 116.125423,4.65908451 116.125423,4.98232394 C116.125423,5.30556338 116.066268,5.61190141 115.949366,5.89992958 C115.831761,6.18866197 115.669085,6.4421831 115.45993,6.66049296 C115.250775,6.87950704 114.999366,7.05204225 114.704296,7.17809859 C114.409225,7.30556338 114.084577,7.36894366 113.729648,7.36894366 C113.374718,7.36894366 113.05007,7.30556338 112.755,7.17809859 C112.45993,7.05204225 112.208521,6.87950704 111.999366,6.66049296 C111.790211,6.4421831 111.626831,6.18866197 111.50993,5.89992958 C111.393028,5.61190141 111.333873,5.30556338 111.333873,4.98232394" id="Fill-18" fill="#414142" mask="url(#mask-2)"></path>
                    <path d="M117.54169,3.67035211 L116.781127,3.67035211 L116.781127,2.75767606 L117.54169,2.75767606 L117.54169,2.48232394 C117.54169,2.15908451 117.592394,1.88514085 117.693803,1.66049296 C117.795211,1.43514085 117.924789,1.2506338 118.083944,1.10838028 C118.242394,0.965422535 118.419859,0.863309859 118.615634,0.799929577 C118.812817,0.736549296 119.005775,0.70415493 119.195915,0.70415493 C119.399437,0.70415493 119.62338,0.733028169 119.871268,0.790070423 C120.118451,0.847112676 120.355775,0.973873239 120.583944,1.17035211 L120.060704,1.91190141 C119.96,1.8421831 119.850141,1.78514085 119.733239,1.74077465 C119.615634,1.69640845 119.49662,1.67387324 119.376197,1.67387324 C119.154366,1.67387324 118.97831,1.74570423 118.848732,1.88795775 C118.719155,2.03091549 118.653662,2.23514085 118.653662,2.50133803 L118.653662,2.75767606 L119.804366,2.75767606 L119.804366,3.67035211 L118.663521,3.67035211 L118.663521,7.21683099 L117.54169,7.21683099 L117.54169,3.67035211 Z" id="Fill-19" fill="#414142" mask="url(#mask-2)"></path>
                    <path d="M122.923099,3.67035211 L122.162535,3.67035211 L122.162535,2.75767606 L122.923099,2.75767606 L122.923099,1.31260563 L124.044225,1.31260563 L124.044225,2.75767606 L125.242113,2.75767606 L125.242113,3.67035211 L124.044225,3.67035211 L124.044225,5.61964789 C124.044225,5.87316901 124.086479,6.06753521 124.172394,6.20415493 C124.25831,6.34077465 124.396338,6.40908451 124.585775,6.40908451 C124.763239,6.40908451 124.904789,6.38373239 125.009718,6.33232394 C125.113944,6.28161972 125.213944,6.22176056 125.309014,6.15133803 L125.783662,6.84640845 C125.562535,7.03021127 125.344225,7.16119718 125.128028,7.24007042 C124.912535,7.31964789 124.67169,7.35908451 124.405493,7.35908451 C124.133662,7.35908451 123.901972,7.31964789 123.711127,7.24007042 C123.52169,7.16119718 123.367465,7.04922535 123.250563,6.9034507 C123.133662,6.75767606 123.049859,6.58161972 122.998451,6.37528169 C122.947746,6.16964789 122.923099,5.94288732 122.923099,5.69570423 L122.923099,3.67035211 Z" id="Fill-20" fill="#414142" mask="url(#mask-2)"></path>
                    <path d="M126.554225,0.875422535 L127.657042,0.875422535 L127.657042,3.21415493 C127.771831,3.08809859 127.937324,2.96415493 128.155634,2.84373239 C128.374648,2.72330986 128.65493,2.66274648 128.997183,2.66274648 C129.269014,2.66274648 129.514085,2.7078169 129.729577,2.7965493 C129.944366,2.88528169 130.123239,3.00992958 130.266197,3.17190141 C130.409859,3.33316901 130.51831,3.52823944 130.594366,3.75640845 C130.671127,3.98457746 130.708451,4.23528169 130.708451,4.50711268 L130.708451,7.21697183 L129.587324,7.21697183 L129.587324,4.51697183 C129.587324,4.23176056 129.508451,4.01133803 129.354225,3.85570423 C129.198592,3.70077465 128.997183,3.62260563 128.75,3.62260563 C128.597887,3.62260563 128.45493,3.65288732 128.322535,3.7134507 C128.189437,3.77330986 128.075352,3.85711268 127.980282,3.96556338 C127.885211,4.07330986 127.809859,4.19866197 127.756338,4.34091549 C127.702817,4.48316901 127.676056,4.63739437 127.676056,4.80147887 L127.676056,7.21697183 L126.554225,7.21697183 L126.554225,0.875422535 Z" id="Fill-21" fill="#414142" mask="url(#mask-2)"></path>
                    <path d="M135.081972,4.51690141 C135.081972,4.4028169 135.060141,4.28873239 135.01507,4.17464789 C134.970704,4.06056338 134.905915,3.95704225 134.820704,3.86549296 C134.735493,3.77323944 134.625634,3.69788732 134.492535,3.63732394 C134.360141,3.57746479 134.207324,3.5471831 134.036901,3.5471831 C133.852394,3.5471831 133.68831,3.57746479 133.546761,3.63732394 C133.403803,3.69788732 133.284789,3.77323944 133.189718,3.86549296 C133.094648,3.95704225 133.021408,4.06056338 132.971408,4.17464789 C132.920704,4.28873239 132.895352,4.4028169 132.895352,4.51690141 L135.081972,4.51690141 Z M136.175634,6.57042254 C136.155915,6.58873239 136.103803,6.6415493 136.018592,6.72746479 C135.932676,6.81267606 135.809437,6.90352113 135.647465,6.99788732 C135.486197,7.09295775 135.279859,7.17816901 135.029859,7.25492958 C134.779155,7.33098592 134.479859,7.36901408 134.131268,7.36901408 C133.776338,7.36901408 133.453099,7.3084507 133.161549,7.18802817 C132.87,7.06760563 132.621408,6.90140845 132.41507,6.68943662 C132.208732,6.47676056 132.050282,6.22183099 131.939718,5.92394366 C131.829155,5.62605634 131.773521,5.29577465 131.773521,4.93521127 C131.773521,4.6056338 131.829155,4.29929577 131.939718,4.01760563 C132.050282,3.73591549 132.205915,3.49014085 132.405211,3.28098592 C132.605211,3.07112676 132.842535,2.90704225 133.119296,2.78661972 C133.394648,2.66619718 133.699577,2.6056338 134.036901,2.6056338 C134.441831,2.6056338 134.785493,2.68098592 135.067183,2.82957746 C135.349577,2.97816901 135.576338,3.17323944 135.747465,3.41408451 C135.917887,3.65492958 136.041831,3.92746479 136.117887,4.23169014 C136.194648,4.53521127 136.231972,4.84647887 136.231972,5.16338028 L136.231972,5.32464789 L132.904507,5.32464789 C132.904507,5.49014085 132.941127,5.63873239 133.013662,5.77183099 C133.086901,5.90492958 133.182676,6.01901408 133.299577,6.11408451 C133.416479,6.2084507 133.549577,6.28169014 133.698169,6.33239437 C133.847465,6.38309859 133.994648,6.40915493 134.141127,6.40915493 C134.355915,6.40915493 134.544648,6.38802817 134.70662,6.3471831 C134.867887,6.3056338 135.00662,6.2584507 135.12,6.20422535 C135.234085,6.15 135.327746,6.09295775 135.400282,6.03309859 C135.473521,5.97253521 135.529155,5.92394366 135.566479,5.88521127 L136.175634,6.57042254 Z" id="Fill-22" fill="#414142" mask="url(#mask-2)"></path>
                    <polygon id="Fill-23" fill="#414142" mask="url(#mask-2)" points="139.311972 7.21725352 140.509859 7.21725352 140.509859 0.875704225 139.311972 0.875704225"></polygon>
                    <polygon id="Fill-24" fill="#414142" mask="url(#mask-2)" points="143.732817 1.93112676 141.584225 1.93112676 141.584225 0.875492958 147.079296 0.875492958 147.079296 1.93112676 144.930704 1.93112676 144.930704 7.21704225 143.732817 7.21704225"></polygon>
                    <polygon id="Fill-25" fill="#414142" mask="url(#mask-2)" points="148.153451 0.875422535 149.351338 0.875422535 149.351338 3.42330986 152.497817 3.42330986 152.497817 0.875422535 153.695704 0.875422535 153.695704 7.21697183 152.497817 7.21697183 152.497817 4.48809859 149.351338 4.48809859 149.351338 7.21697183 148.153451 7.21697183"></polygon>
                    <path d="M158.421127,4.62147887 L157.584507,2.15880282 L156.738028,4.62147887 L158.421127,4.62147887 Z M157.004225,0.875704225 L158.240141,0.875704225 L160.645775,7.21725352 L159.314789,7.21725352 L158.762676,5.60950704 L156.405634,5.60950704 L155.853521,7.21725352 L154.599296,7.21725352 L157.004225,0.875704225 Z" id="Fill-26" fill="#414142" mask="url(#mask-2)"></path>
                    <polygon id="Fill-27" fill="#414142" mask="url(#mask-2)" points="161.548169 0.875422535 162.746056 0.875422535 162.746056 3.48035211 165.094648 0.875422535 166.454507 0.875422535 164.115775 3.47119718 166.710845 7.21697183 165.265775 7.21697183 163.336197 4.33598592 162.746056 4.99232394 162.746056 7.21697183 161.548169 7.21697183"></polygon>
                    <path d="M170.846197,4.62147887 L170.010282,2.15880282 L169.163803,4.62147887 L170.846197,4.62147887 Z M169.429296,0.875704225 L170.665915,0.875704225 L173.070845,7.21725352 L171.740563,7.21725352 L171.188451,5.60950704 L168.831408,5.60950704 L168.279296,7.21725352 L167.024366,7.21725352 L169.429296,0.875704225 Z" id="Fill-28" fill="#414142" mask="url(#mask-2)"></path>
                    <path d="M176.103803,3.67035211 L175.343239,3.67035211 L175.343239,2.75767606 L176.103803,2.75767606 L176.103803,2.48232394 C176.103803,2.15908451 176.154507,1.88514085 176.255915,1.66049296 C176.357324,1.43514085 176.486901,1.2506338 176.646056,1.10838028 C176.804507,0.965422535 176.981972,0.863309859 177.177746,0.799929577 C177.37493,0.736549296 177.567887,0.70415493 177.758028,0.70415493 C177.961549,0.70415493 178.185493,0.733028169 178.43338,0.790070423 C178.680563,0.847112676 178.917887,0.973873239 179.146056,1.17035211 L178.622817,1.91190141 C178.522113,1.8421831 178.412254,1.78514085 178.295352,1.74077465 C178.177746,1.69640845 178.058732,1.67387324 177.93831,1.67387324 C177.716479,1.67387324 177.540423,1.74570423 177.410845,1.88795775 C177.281268,2.03091549 177.215775,2.23514085 177.215775,2.50133803 L177.215775,2.75767606 L178.366479,2.75767606 L178.366479,3.67035211 L177.225634,3.67035211 L177.225634,7.21683099 L176.103803,7.21683099 L176.103803,3.67035211 Z" id="Fill-29" fill="#414142" mask="url(#mask-2)"></path>
                    <path d="M181.731408,5.20119718 C181.617324,5.19485915 181.507465,5.18852113 181.39831,5.1821831 C181.310282,5.17584507 181.217324,5.17091549 181.118732,5.16809859 C181.020141,5.16457746 180.936338,5.16316901 180.865915,5.16316901 C180.505352,5.16316901 180.251127,5.23429577 180.105352,5.37725352 C179.959577,5.51950704 179.887042,5.68359155 179.887042,5.86669014 C179.887042,6.05683099 179.956056,6.20612676 180.091972,6.31316901 C180.227887,6.42091549 180.428592,6.47514085 180.695493,6.47514085 C180.829296,6.47514085 180.956761,6.45260563 181.080704,6.40894366 C181.204648,6.36387324 181.313099,6.30401408 181.408169,6.22795775 C181.503944,6.15190141 181.581408,6.06387324 181.641268,5.96176056 C181.701127,5.86105634 181.731408,5.75260563 181.731408,5.63852113 L181.731408,5.20119718 Z M181.731408,6.79838028 C181.61169,6.94485915 181.427183,7.07373239 181.18,7.1878169 C180.933521,7.30190141 180.657465,7.35894366 180.353239,7.35894366 C180.168732,7.35894366 179.987042,7.33077465 179.806761,7.27373239 C179.625775,7.21669014 179.460986,7.1293662 179.31169,7.01246479 C179.163803,6.89485915 179.042676,6.74415493 178.951127,6.56105634 C178.859577,6.37725352 178.812394,6.16105634 178.812394,5.91457746 C178.812394,5.66035211 178.860986,5.43429577 178.956056,5.23429577 C179.050423,5.035 179.184225,4.86669014 179.354648,4.73077465 C179.526479,4.59485915 179.731408,4.49133803 179.972958,4.42161972 C180.213803,4.35190141 180.48,4.31669014 180.771549,4.31669014 C180.860986,4.31669014 180.958169,4.31880282 181.06662,4.32161972 C181.174366,4.32514085 181.278592,4.33007042 181.38,4.33570423 C181.494085,4.34204225 181.61169,4.34908451 181.731408,4.35542254 L181.731408,4.25049296 C181.731408,4.02866197 181.64338,3.85471831 181.465915,3.72725352 C181.288451,3.60119718 181.056761,3.5378169 180.771549,3.5378169 C180.455352,3.5378169 180.201127,3.57866197 180.010986,3.66105634 C179.820845,3.7434507 179.653239,3.8321831 179.507465,3.92725352 L178.99338,3.16669014 C179.082113,3.10330986 179.184225,3.03852113 179.29831,2.97161972 C179.412394,2.90542254 179.545493,2.84485915 179.696901,2.79133803 C179.849718,2.73711268 180.02507,2.69274648 180.22507,2.65823944 C180.42507,2.62373239 180.657465,2.60542254 180.924366,2.60542254 C181.208873,2.60542254 181.467324,2.64556338 181.69831,2.72443662 C181.929296,2.80401408 182.127183,2.91457746 182.292676,3.05753521 C182.457465,3.19978873 182.584225,3.37091549 182.672958,3.57091549 C182.76169,3.77091549 182.805352,3.98711268 182.805352,4.22161972 L182.805352,7.21669014 L181.760282,7.21669014 L181.731408,6.79838028 Z" id="Fill-30" fill="#414142" mask="url(#mask-2)"></path>
                    <path d="M184.080634,2.75774648 L185.154577,2.75774648 L185.182746,3.26197183 C185.239789,3.19859155 185.304577,3.13028169 185.377817,3.05774648 C185.450352,2.98450704 185.539789,2.91901408 185.644718,2.86197183 C185.748944,2.80492958 185.868662,2.75774648 186.004577,2.71971831 C186.141197,2.68239437 186.298239,2.66267606 186.475704,2.66267606 C187.065141,2.66267606 187.512324,2.87816901 187.816549,3.30915493 C188.044718,3.07464789 188.277113,2.9084507 188.515141,2.80985915 C188.753169,2.71267606 189.02993,2.66267606 189.347535,2.66267606 C189.910915,2.66267606 190.344014,2.82957746 190.644718,3.16197183 C190.945423,3.49507042 191.096831,3.94366197 191.096831,4.50704225 L191.096831,7.21690141 L189.974296,7.21690141 L189.974296,4.51690141 C189.974296,4.23169014 189.903169,4.01126761 189.760211,3.85633803 C189.617958,3.70070423 189.422887,3.62323944 189.175704,3.62323944 C189.024296,3.62323944 188.884155,3.6528169 188.757394,3.71338028 C188.630634,3.77323944 188.522183,3.85774648 188.42993,3.96549296 C188.337676,4.07323944 188.267958,4.19859155 188.220775,4.34084507 C188.172887,4.48309859 188.148944,4.63732394 188.148944,4.80140845 L188.148944,7.21690141 L187.027113,7.21690141 L187.027113,4.51690141 C187.027113,4.23169014 186.955986,4.01126761 186.813732,3.85633803 C186.670775,3.70070423 186.475704,3.62323944 186.229225,3.62323944 C186.076408,3.62323944 185.937676,3.6528169 185.810915,3.71338028 C185.683451,3.77323944 185.574296,3.85774648 185.482042,3.96549296 C185.389789,4.07323944 185.321479,4.19859155 185.272887,4.34084507 C185.225704,4.48309859 185.201761,4.63732394 185.201761,4.80140845 L185.201761,7.21690141 L184.080634,7.21690141 L184.080634,2.75774648 Z" id="Fill-31" fill="#414142" mask="url(#mask-2)"></path>
                    <path d="M192.417606,7.2165493 L193.539437,7.2165493 L193.539437,2.75739437 L192.417606,2.75739437 L192.417606,7.2165493 Z M192.380282,2.05457746 L193.578169,2.05457746 L193.578169,0.875704225 L192.380282,0.875704225 L192.380282,2.05457746 Z" id="Fill-32" fill="#414142" mask="url(#mask-2)"></path>
                    <polygon id="Fill-33" fill="#414142" mask="url(#mask-2)" points="194.880282 7.21725352 196.001408 7.21725352 196.001408 0.875704225 194.880282 0.875704225"></polygon>
                    <path d="M197.333028,8.1006338 C197.396408,8.15133803 197.466127,8.20133803 197.542183,8.24852113 C197.617535,8.29570423 197.71331,8.31964789 197.827394,8.31964789 C197.979507,8.31964789 198.104859,8.25626761 198.202746,8.12950704 C198.301338,8.00204225 198.404155,7.80626761 198.511901,7.54007042 L198.654859,7.17809859 L196.647817,2.75767606 L197.940775,2.75767606 L199.215423,5.80978873 L200.337254,2.75767606 L201.564014,2.75767606 L199.69993,7.21683099 C199.611197,7.43866197 199.522465,7.66683099 199.433732,7.90133803 C199.345,8.13584507 199.235845,8.35274648 199.106268,8.55274648 C198.975986,8.75204225 198.815423,8.91471831 198.625986,9.0421831 C198.435845,9.16894366 198.195,9.23161972 197.904155,9.23161972 C197.649225,9.23161972 197.438662,9.20204225 197.271056,9.1421831 C197.103451,9.08161972 196.956268,8.99711268 196.829507,8.89007042 L197.333028,8.1006338 Z" id="Fill-34" fill="#414142" mask="url(#mask-2)"></path>
                    <path d="M20.2454225,21.5478873 L20.2454225,22.0676056 L20.3419014,22.0676056 C20.8285211,22.0676056 20.9257042,22.2929577 20.9257042,22.6401408 L20.9257042,35.2929577 C20.9257042,35.6366197 20.8285211,35.8626761 20.3419014,35.8626761 L20.2454225,35.8626761 L20.2454225,36.3816901 L24.1271127,36.3816901 L24.1271127,35.8626761 L24.0341549,35.8626761 C23.5390845,35.8626761 23.4390845,35.6366197 23.4390845,35.2929577 L23.4390845,22.6401408 C23.4390845,22.2929577 23.5390845,22.0676056 24.0341549,22.0676056 L24.1271127,22.0676056 L24.1271127,21.5478873 L20.2454225,21.5478873 Z" id="Fill-35" fill="#414042" mask="url(#mask-2)"></path>
                    <path d="M64.9787324,20.8105634 L64.9787324,20.9035211 C64.9787324,21.3302817 64.6878873,21.5478873 64.0970423,21.5478873 L52.3871831,21.5478873 C51.796338,21.5478873 51.5097183,21.3302817 51.5097183,20.9035211 L51.5097183,20.8105634 L50.9864789,20.8105634 L50.9864789,24.2992958 L51.5097183,24.2992958 L51.5097183,24.1978873 C51.5097183,23.7112676 51.7167606,23.5690141 52.3871831,23.5690141 L56.9780282,23.5690141 L56.9780282,35.2929577 C56.9780282,35.6366197 56.8808451,35.8626761 56.4047887,35.8626761 L56.3111268,35.8626761 L56.3111268,36.3816901 L60.1723944,36.3816901 L60.1723944,35.8626761 L60.0829577,35.8626761 C59.6104225,35.8626761 59.5097183,35.6366197 59.5097183,35.2929577 L59.5097183,23.5690141 L64.0970423,23.5690141 C64.7738028,23.5690141 64.9787324,23.7112676 64.9787324,24.1978873 L64.9787324,24.2992958 L65.4864789,24.2992958 L65.4864789,20.8105634 L64.9787324,20.8105634 Z" id="Fill-36" fill="#414042" mask="url(#mask-2)"></path>
                    <path d="M104.984014,21.5478873 L104.984014,22.0676056 L105.076972,22.0676056 C105.488944,22.0676056 105.661479,22.2288732 105.661479,22.6401408 L105.661479,27.7866197 L95.9671127,27.7866197 L95.9671127,22.6401408 C95.9671127,22.2929577 96.0706338,22.0676056 96.5544366,22.0676056 L96.6473944,22.0676056 L96.6473944,21.5478873 L92.7755634,21.5478873 L92.7755634,22.0676056 L92.8685211,22.0676056 C93.3452817,22.0676056 93.4459859,22.2929577 93.4459859,22.6401408 L93.4459859,35.2929577 C93.4459859,35.6366197 93.3452817,35.8626761 92.8685211,35.8626761 L92.7755634,35.8626761 L92.7755634,36.3816901 L96.6473944,36.3816901 L96.6473944,35.8626761 L96.5544366,35.8626761 C96.0706338,35.8626761 95.9671127,35.6366197 95.9671127,35.2929577 L95.9671127,29.8105634 L105.661479,29.8105634 L105.661479,35.2929577 C105.661479,35.7014085 105.488944,35.8626761 105.076972,35.8626761 L104.984014,35.8626761 L104.984014,36.3816901 L108.85162,36.3816901 L108.85162,35.8626761 L108.755141,35.8626761 C108.279789,35.8626761 108.182606,35.6366197 108.182606,35.2929577 L108.182606,22.6401408 C108.182606,22.2288732 108.34669,22.0676056 108.755141,22.0676056 L108.85162,22.0676056 L108.85162,21.5478873 L104.984014,21.5478873 Z" id="Fill-37" fill="#414042" mask="url(#mask-2)"></path>
                    <path d="M186.353732,21.5478873 L186.353732,22.0676056 L186.447394,22.0676056 C186.691761,22.0676056 186.779789,22.1535211 186.779789,22.2176056 C186.779789,22.2859155 186.705141,22.35 186.531901,22.4795775 L186.421338,22.5725352 C186.421338,22.5725352 179.274859,27.9267606 178.979789,28.1415493 L178.979789,22.6401408 C178.979789,22.2288732 179.152324,22.0676056 179.559366,22.0676056 L179.654437,22.0676056 L179.654437,21.5478873 L175.789648,21.5478873 L175.789648,22.0676056 L175.88331,22.0676056 C176.367113,22.0676056 176.459366,22.2929577 176.459366,22.6401408 L176.459366,35.2929577 C176.459366,35.6366197 176.367113,35.8626761 175.88331,35.8626761 L175.789648,35.8626761 L175.789648,36.3816901 L179.654437,36.3816901 L179.654437,35.8626761 L179.559366,35.8626761 C179.152324,35.8626761 178.979789,35.7014085 178.979789,35.2929577 L178.979789,29.9676056 C179.843169,30.5978873 184.485423,34.0394366 186.326268,35.1711268 C186.658662,35.3795775 186.888239,35.7119718 186.905845,35.765493 C186.902324,35.815493 186.902324,35.8626761 186.63331,35.8626761 L186.536831,35.8626761 L186.536831,36.3816901 L191.612183,36.3816901 L191.612183,35.8626761 L191.517817,35.8626761 C191.206549,35.8626761 190.429789,35.443662 189.484014,34.7598592 C189.484014,34.7598592 181.591761,29.2478873 181.395282,29.1112676 C181.575563,28.9542254 189.290352,22.7119718 189.290352,22.7119718 C189.287535,22.7161972 189.548099,22.5225352 189.548099,22.5225352 C190.032606,22.1711268 190.184014,22.0676056 190.618521,22.0676056 L190.712183,22.0676056 L190.712183,21.5478873 L186.353732,21.5478873 Z" id="Fill-38" fill="#414042" mask="url(#mask-2)"></path>
                    <path d="M142.241901,24.1980282 C142.40669,24.538169 145.127817,30.2184507 145.244718,30.4656338 L139.483451,30.4656338 C139.589789,30.2219718 142.086268,24.5459155 142.241901,24.1980282 L142.241901,24.1980282 Z M140.194718,21.5480282 L140.194718,22.0677465 L140.285563,22.0677465 C140.518662,22.0677465 140.696831,22.1923944 140.696831,22.3001408 C140.696831,22.3973239 140.634859,22.5297183 140.532746,22.7550704 L140.263732,23.3607042 L135.210211,34.6191549 C134.651761,35.8628169 134.565845,35.8628169 134.15669,35.8628169 L134.06162,35.8628169 L134.06162,36.381831 L137.675,36.381831 L137.675,35.8628169 L137.584155,35.8628169 C137.213732,35.8628169 137.213732,35.7261972 137.213732,35.6543662 C137.213732,35.503662 137.349648,35.203662 137.470775,34.9311268 L137.589085,34.6557746 C137.589085,34.6557746 138.469366,32.6071831 138.516549,32.4959155 L146.276408,32.4959155 C146.322887,32.5966197 147.319366,34.6628169 147.319366,34.6628169 C147.314437,34.6585915 147.450352,34.9564789 147.450352,34.9564789 C147.633451,35.3761972 147.67007,35.4578873 147.67007,35.575493 C147.67007,35.7332394 147.633451,35.8628169 147.203873,35.8628169 L147.115141,35.8628169 L147.115141,36.381831 L151.172183,36.381831 L151.172183,35.8628169 L151.079225,35.8628169 C150.507394,35.8628169 150.496127,35.8480282 149.879225,34.5761972 L144.500352,23.4360563 L144.30669,23.0353521 C144.124296,22.6614085 144.013028,22.4466197 144.013028,22.3001408 C144.013028,22.16 144.03838,22.0677465 144.350352,22.0677465 L144.451056,22.0677465 L144.451056,21.5480282 L140.194718,21.5480282 Z" id="Fill-39" fill="#414042" mask="url(#mask-2)"></path>
                    <path d="M222.58831,24.1980282 C222.753803,24.538169 225.47493,30.2184507 225.593944,30.4656338 L219.831268,30.4656338 C219.939718,30.2219718 222.43831,24.5459155 222.58831,24.1980282 L222.58831,24.1980282 Z M220.536197,21.5480282 L220.536197,22.0677465 L220.626338,22.0677465 C220.862958,22.0677465 221.045352,22.1923944 221.045352,22.3001408 C221.045352,22.3973239 220.974225,22.5367606 220.866479,22.7691549 L220.600282,23.3607042 L215.561549,34.6191549 C214.992535,35.8628169 214.908028,35.8628169 214.494648,35.8628169 L214.403099,35.8628169 L214.403099,36.381831 L218.030563,36.381831 L218.030563,35.8628169 L217.941127,35.8628169 C217.558028,35.8628169 217.558028,35.7261972 217.558028,35.6543662 C217.558028,35.5114085 217.693944,35.2142254 217.81507,34.9423944 L217.941127,34.6557746 C217.941127,34.6557746 218.808028,32.6071831 218.850282,32.4959155 L226.61507,32.4959155 C226.660845,32.5966197 227.65662,34.6628169 227.65662,34.6628169 L227.755915,34.8874648 C227.965775,35.3501408 228.008732,35.4430986 228.008732,35.575493 C228.008732,35.744507 227.972113,35.8628169 227.545352,35.8628169 L227.455915,35.8628169 L227.455915,36.381831 L231.512958,36.381831 L231.512958,35.8628169 L231.423521,35.8628169 C230.843944,35.8628169 230.83338,35.8480282 230.212958,34.5621127 L224.846056,23.4360563 L224.627746,22.9952113 C224.45169,22.644507 224.347465,22.4402817 224.347465,22.3001408 C224.347465,22.1783099 224.375634,22.0677465 224.709437,22.0677465 L224.803099,22.0677465 L224.803099,21.5480282 L220.536197,21.5480282 Z" id="Fill-40" fill="#414042" mask="url(#mask-2)"></path>
                    <path d="M150.376901,55.6984507 C150.561408,55.9076056 150.745915,56.0597183 150.933239,56.1547887 C151.120563,56.2498592 151.343803,56.2977465 151.603662,56.2977465 C151.755775,56.2977465 151.89662,56.2730986 152.026901,56.2259155 C152.156479,56.1787324 152.271972,56.1040845 152.37338,56.0026761 C152.474789,55.9012676 152.554366,55.7716901 152.611408,55.6132394 C152.668451,55.4540845 152.69662,55.2646479 152.69662,55.0421127 L152.69662,50.6407042 L153.609296,50.6407042 L153.609296,55.1188732 C153.609296,55.4857746 153.555775,55.7984507 153.447324,56.0547887 C153.340282,56.311831 153.195915,56.5209859 153.01493,56.6822535 C152.834648,56.8442254 152.62338,56.9611268 152.383239,57.033662 C152.142394,57.1069014 151.888169,57.1435211 151.622676,57.1435211 C151.153662,57.1435211 150.770563,57.0611268 150.472676,56.896338 C150.174085,56.7315493 149.926901,56.5223944 149.730423,56.2688732 L150.376901,55.6984507 Z" id="Fill-41" fill="#414142" mask="url(#mask-2)"></path>
                    <path d="M156.71831,55.4419014 C156.807042,55.5433099 156.907042,55.6461268 157.017606,55.7503521 C157.128169,55.8552817 157.253521,55.9489437 157.392958,56.031338 C157.532394,56.1137324 157.688028,56.1799296 157.859155,56.2306338 C158.029577,56.281338 158.216901,56.3073944 158.419718,56.3073944 C158.838732,56.3073944 159.164789,56.2123239 159.399296,56.0214789 C159.633803,55.8320423 159.751408,55.5742958 159.751408,55.2510563 C159.751408,54.903169 159.617606,54.6411972 159.351408,54.4672535 C159.085211,54.2926056 158.701408,54.1517606 158.200704,54.0447183 C157.928873,53.9876761 157.68169,53.9080986 157.459859,53.8066901 C157.237324,53.7052817 157.046479,53.5785211 156.884507,53.4264085 C156.723239,53.2742958 156.597887,53.0982394 156.509155,52.8989437 C156.419718,52.6989437 156.376056,52.4721831 156.376056,52.218662 C156.376056,51.9848592 156.419718,51.7623239 156.509155,51.5538732 C156.597887,51.3447183 156.730986,51.1602113 156.908451,51.0017606 C157.085211,50.8440141 157.307746,50.7165493 157.573944,50.6214789 C157.840141,50.5271127 158.147183,50.4792254 158.495775,50.4792254 C158.806338,50.4792254 159.074648,50.5123239 159.299296,50.5792254 C159.523944,50.6454225 159.716197,50.7264085 159.873944,50.8207746 C160.033099,50.9165493 160.159859,51.0151408 160.254225,51.1158451 C160.35,51.2172535 160.422535,51.2996479 160.473239,51.3630282 L159.865493,51.9242958 C159.826761,51.8799296 159.769718,51.8207746 159.694366,51.7482394 C159.617606,51.675 159.520423,51.6045775 159.403521,51.5341549 C159.285915,51.4651408 159.15,51.4059859 158.99507,51.3580986 C158.840141,51.3109155 158.660563,51.2876761 158.458451,51.2876761 C158.255634,51.2876761 158.080986,51.3144366 157.935211,51.3679577 C157.789437,51.4221831 157.669014,51.4919014 157.573944,51.5771127 C157.478873,51.6630282 157.408451,51.759507 157.364789,51.8672535 C157.319718,51.975 157.297887,52.0820423 157.297887,52.190493 C157.297887,52.3482394 157.330986,52.4834507 157.397887,52.5940141 C157.464789,52.7052817 157.560563,52.8038732 157.688028,52.8890845 C157.814789,52.9742958 157.971127,53.0475352 158.158451,53.1080986 C158.345775,53.1679577 158.559155,53.2264085 158.8,53.2841549 C159.034507,53.3411972 159.264085,53.4151408 159.489437,53.5073944 C159.714085,53.5989437 159.915493,53.7228873 160.092958,53.8778169 C160.270423,54.0334507 160.411268,54.2235915 160.516197,54.4482394 C160.621127,54.6728873 160.673239,54.9475352 160.673239,55.2707746 C160.673239,55.5433099 160.616197,55.7933099 160.502113,56.0214789 C160.388028,56.2496479 160.230986,56.4482394 160.030986,56.6158451 C159.83169,56.7834507 159.595775,56.9137324 159.323239,57.0059859 C159.050704,57.0975352 158.756338,57.1433099 158.438732,57.1433099 C158.141549,57.1433099 157.870423,57.1080986 157.626056,57.0390845 C157.38169,56.9693662 157.160563,56.8806338 156.960563,56.7728873 C156.761268,56.6651408 156.58662,56.5461268 156.438028,56.4165493 C156.288732,56.2862676 156.166901,56.1580986 156.071831,56.031338 L156.71831,55.4419014 Z" id="Fill-42" fill="#414142" mask="url(#mask-2)"></path>
                    <polygon id="Fill-43" fill="#414142" mask="url(#mask-2)" points="164.893944 51.4393662 162.622113 51.4393662 162.622113 50.6407746 168.07 50.6407746 168.07 51.4393662 165.807324 51.4393662 165.807324 56.9816197 164.893944 56.9816197"></polygon>
                    <path d="M172.75669,56.2878169 C173.105282,56.2878169 173.42007,56.2209155 173.702465,56.0885211 C173.984155,55.9547183 174.225704,55.7744366 174.425,55.5462676 C174.624296,55.3180986 174.778521,55.0533099 174.885563,54.7526056 C174.994014,54.4519014 175.047535,54.1328873 175.047535,53.7969718 C175.047535,53.4554225 174.994014,53.1335915 174.885563,52.8321831 C174.778521,52.5307746 174.624296,52.2666901 174.425,52.0385211 C174.225704,51.8103521 173.984155,51.6314789 173.702465,51.5011972 C173.42007,51.3716197 173.105282,51.3061268 172.75669,51.3061268 C172.408099,51.3061268 172.094718,51.3716197 171.815141,51.5011972 C171.536972,51.6314789 171.297535,51.8103521 171.097535,52.0385211 C170.897535,52.2666901 170.744718,52.5307746 170.636268,52.8321831 C170.528521,53.1335915 170.475,53.4554225 170.475,53.7969718 C170.475,54.1328873 170.528521,54.4519014 170.636268,54.7526056 C170.744718,55.0533099 170.897535,55.3180986 171.097535,55.5462676 C171.297535,55.7744366 171.536972,55.9547183 171.815141,56.0885211 C172.094718,56.2209155 172.408099,56.2878169 172.75669,56.2878169 M172.75669,57.1434507 C172.300352,57.1434507 171.875704,57.0561268 171.482042,56.8821831 C171.089789,56.7082394 170.746831,56.4702113 170.455282,56.1688028 C170.163732,55.8680986 169.936268,55.5145775 169.771479,55.1089437 C169.605986,54.7033099 169.524296,54.269507 169.524296,53.806831 C169.524296,53.3434507 169.605986,52.9110563 169.771479,52.5089437 C169.936268,52.106831 170.162324,51.7547183 170.451056,51.4540141 C170.739789,51.1526056 171.081338,50.9145775 171.477817,50.7406338 C171.873592,50.5659859 172.300352,50.4793662 172.75669,50.4793662 C173.212324,50.4793662 173.639085,50.5659859 174.034859,50.7406338 C174.431338,50.9145775 174.775,51.1526056 175.066549,51.4540141 C175.358099,51.7547183 175.586972,52.106831 175.751056,52.5089437 C175.915845,52.9110563 175.998944,53.3434507 175.998944,53.806831 C175.998944,54.269507 175.915845,54.7033099 175.751056,55.1089437 C175.586972,55.5145775 175.358099,55.8680986 175.066549,56.1688028 C174.775,56.4702113 174.431338,56.7082394 174.034859,56.8821831 C173.639085,57.0561268 173.212324,57.1434507 172.75669,57.1434507" id="Fill-44" fill="#414142" mask="url(#mask-2)"></path>
                    <path d="M180.713592,53.6166901 C181.112887,53.6166901 181.412887,53.5180986 181.612183,53.3216197 C181.812183,53.1251408 181.911479,52.8624648 181.911479,52.5328873 C181.911479,52.1842958 181.803732,51.913169 181.588239,51.7202113 C181.373451,51.5265493 181.075563,51.4300704 180.695282,51.4300704 L179.49669,51.4300704 L179.49669,53.6166901 L180.713592,53.6166901 Z M178.612887,50.6406338 L180.638239,50.6406338 C181.043873,50.6406338 181.385423,50.6962676 181.665,50.8075352 C181.943169,50.9180986 182.16993,51.0603521 182.343873,51.235 C182.518521,51.4089437 182.645282,51.606831 182.724155,51.8293662 C182.803732,52.050493 182.843169,52.2758451 182.843169,52.5040141 C182.843169,52.9096479 182.748803,53.2680986 182.557958,53.5779577 C182.368521,53.8892254 182.073451,54.1202113 181.674155,54.2723239 L183.157254,56.9814789 L182.130493,56.9814789 L180.770634,54.3864085 L179.49669,54.3864085 L179.49669,56.9814789 L178.612887,56.9814789 L178.612887,50.6406338 Z" id="Fill-45" fill="#414142" mask="url(#mask-2)"></path>
                    <path d="M3.94542254,54.4433099 L2.91866197,51.6580986 L1.88274648,54.4433099 L3.94542254,54.4433099 Z M2.48204225,50.6411972 L3.41302817,50.6411972 L5.89471831,56.981338 L4.87711268,56.981338 L4.22147887,55.2137324 L1.6165493,55.2137324 L0.960915493,56.981338 L-0.000352112676,56.981338 L2.48204225,50.6411972 Z" id="Fill-46" fill="#414142" mask="url(#mask-2)"></path>
                    <path d="M10.2483803,53.6166901 C10.6476761,53.6166901 10.9476761,53.5180986 11.1469718,53.3216197 C11.3469718,53.1251408 11.4462676,52.8624648 11.4462676,52.5328873 C11.4462676,52.1842958 11.3385211,51.913169 11.1230282,51.7202113 C10.9082394,51.5265493 10.6103521,51.4300704 10.2300704,51.4300704 L9.03147887,51.4300704 L9.03147887,53.6166901 L10.2483803,53.6166901 Z M8.14767606,50.6406338 L10.1730282,50.6406338 C10.578662,50.6406338 10.9202113,50.6962676 11.1997887,50.8075352 C11.4779577,50.9180986 11.7047183,51.0603521 11.878662,51.235 C12.0533099,51.4089437 12.1800704,51.606831 12.2589437,51.8293662 C12.3385211,52.050493 12.3779577,52.2758451 12.3779577,52.5040141 C12.3779577,52.9096479 12.2835915,53.2680986 12.0927465,53.5779577 C11.9033099,53.8892254 11.6082394,54.1202113 11.2089437,54.2723239 L12.6920423,56.9814789 L11.6652817,56.9814789 L10.3054225,54.3864085 L9.03147887,54.3864085 L9.03147887,56.9814789 L8.14767606,56.9814789 L8.14767606,50.6406338 Z" id="Fill-47" fill="#414142" mask="url(#mask-2)"></path>
                    <polygon id="Fill-48" fill="#414142" mask="url(#mask-2)" points="16.7700704 51.4393662 14.4982394 51.4393662 14.4982394 50.6407746 19.9461268 50.6407746 19.9461268 51.4393662 17.6834507 51.4393662 17.6834507 56.9816197 16.7700704 56.9816197"></polygon>
                    <path d="M22.3605634,55.4419014 C22.4492958,55.5433099 22.5492958,55.6461268 22.6605634,55.7503521 C22.7711268,55.8552817 22.8964789,55.9489437 23.0359155,56.031338 C23.1746479,56.1137324 23.3302817,56.1799296 23.5014085,56.2306338 C23.6725352,56.281338 23.8598592,56.3073944 24.0626761,56.3073944 C24.4809859,56.3073944 24.8077465,56.2123239 25.0422535,56.0214789 C25.2760563,55.8320423 25.393662,55.5742958 25.393662,55.2510563 C25.393662,54.903169 25.2605634,54.6411972 24.9943662,54.4672535 C24.7274648,54.2926056 24.3443662,54.1517606 23.843662,54.0447183 C23.5711268,53.9876761 23.3239437,53.9080986 23.1028169,53.8066901 C22.8802817,53.7052817 22.6887324,53.5785211 22.5267606,53.4264085 C22.365493,53.2742958 22.2401408,53.0982394 22.1514085,52.8989437 C22.0626761,52.6989437 22.0190141,52.4721831 22.0190141,52.218662 C22.0190141,51.9848592 22.0626761,51.7623239 22.1514085,51.5538732 C22.2401408,51.3447183 22.3739437,51.1602113 22.5514085,51.0017606 C22.728169,50.8440141 22.95,50.7165493 23.2161972,50.6214789 C23.4830986,50.5271127 23.7894366,50.4792254 24.1380282,50.4792254 C24.4492958,50.4792254 24.7169014,50.5123239 24.9415493,50.5792254 C25.1669014,50.6454225 25.3584507,50.7264085 25.5169014,50.8207746 C25.6753521,50.9165493 25.8028169,51.0151408 25.8971831,51.1158451 C25.9922535,51.2172535 26.065493,51.2996479 26.1161972,51.3630282 L25.5077465,51.9242958 C25.4697183,51.8799296 25.4126761,51.8207746 25.3366197,51.7482394 C25.2605634,51.675 25.1633803,51.6045775 25.0464789,51.5341549 C24.9288732,51.4651408 24.7929577,51.4059859 24.6373239,51.3580986 C24.4823944,51.3109155 24.3035211,51.2876761 24.1007042,51.2876761 C23.8978873,51.2876761 23.7239437,51.3144366 23.578169,51.3679577 C23.4316901,51.4221831 23.3119718,51.4919014 23.2161972,51.5771127 C23.1211268,51.6630282 23.0514085,51.759507 23.0070423,51.8672535 C22.9626761,51.975 22.9408451,52.0820423 22.9408451,52.190493 C22.9408451,52.3482394 22.9739437,52.4834507 23.0408451,52.5940141 C23.1070423,52.7052817 23.2035211,52.8038732 23.3302817,52.8890845 C23.4577465,52.9742958 23.6140845,53.0475352 23.8014085,53.1080986 C23.9880282,53.1679577 24.2014085,53.2264085 24.4429577,53.2841549 C24.6774648,53.3411972 24.9070423,53.4151408 25.1323944,53.5073944 C25.3570423,53.5989437 25.5584507,53.7228873 25.7359155,53.8778169 C25.9133803,54.0334507 26.0542254,54.2235915 26.1591549,54.4482394 C26.2633803,54.6728873 26.315493,54.9475352 26.315493,55.2707746 C26.315493,55.5433099 26.2584507,55.7933099 26.1443662,56.0214789 C26.0302817,56.2496479 25.8732394,56.4482394 25.6739437,56.6158451 C25.4746479,56.7834507 25.2380282,56.9137324 24.965493,57.0059859 C24.693662,57.0975352 24.3985915,57.1433099 24.0809859,57.1433099 C23.7838028,57.1433099 23.5126761,57.1080986 23.2683099,57.0390845 C23.0246479,56.9693662 22.8028169,56.8806338 22.6035211,56.7728873 C22.4035211,56.6651408 22.2288732,56.5461268 22.0802817,56.4165493 C21.9316901,56.2862676 21.8091549,56.1580986 21.7140845,56.031338 L22.3605634,55.4419014 Z" id="Fill-49" fill="#414142" mask="url(#mask-2)"></path>
                    <polygon id="Fill-50" fill="#414142" mask="url(#mask-2)" points="30.536831 51.4393662 28.2642958 51.4393662 28.2642958 50.6407746 33.7121831 50.6407746 33.7121831 51.4393662 31.449507 51.4393662 31.449507 56.9816197 30.536831 56.9816197"></polygon>
                    <path d="M38.3988732,56.2878169 C38.7474648,56.2878169 39.0629577,56.2209155 39.3453521,56.0885211 C39.6270423,55.9547183 39.8678873,55.7744366 40.0671831,55.5462676 C40.2671831,55.3180986 40.4207042,55.0533099 40.5284507,54.7526056 C40.6361972,54.4519014 40.6904225,54.1328873 40.6904225,53.7969718 C40.6904225,53.4554225 40.6361972,53.1335915 40.5284507,52.8321831 C40.4207042,52.5307746 40.2671831,52.2666901 40.0671831,52.0385211 C39.8678873,51.8103521 39.6270423,51.6314789 39.3453521,51.5011972 C39.0629577,51.3716197 38.7474648,51.3061268 38.3988732,51.3061268 C38.0502817,51.3061268 37.7369014,51.3716197 37.4580282,51.5011972 C37.1791549,51.6314789 36.9397183,51.8103521 36.7404225,52.0385211 C36.5404225,52.2666901 36.3869014,52.5307746 36.2791549,52.8321831 C36.1714085,53.1335915 36.1178873,53.4554225 36.1178873,53.7969718 C36.1178873,54.1328873 36.1714085,54.4519014 36.2791549,54.7526056 C36.3869014,55.0533099 36.5404225,55.3180986 36.7404225,55.5462676 C36.9397183,55.7744366 37.1791549,55.9547183 37.4580282,56.0885211 C37.7369014,56.2209155 38.0502817,56.2878169 38.3988732,56.2878169 M38.3988732,57.1434507 C37.9432394,57.1434507 37.5178873,57.0561268 37.1249296,56.8821831 C36.7319718,56.7082394 36.3897183,56.4702113 36.098169,56.1688028 C35.8066197,55.8680986 35.5784507,55.5145775 35.4143662,55.1089437 C35.2488732,54.7033099 35.1664789,54.269507 35.1664789,53.806831 C35.1664789,53.3434507 35.2488732,52.9110563 35.4143662,52.5089437 C35.5784507,52.106831 35.804507,51.7547183 36.0939437,51.4540141 C36.3819718,51.1526056 36.7242254,50.9145775 37.1207042,50.7406338 C37.5164789,50.5659859 37.9432394,50.4793662 38.3988732,50.4793662 C38.8552113,50.4793662 39.2819718,50.5659859 39.6777465,50.7406338 C40.0735211,50.9145775 40.4178873,51.1526056 40.7094366,51.4540141 C41.0002817,51.7547183 41.2291549,52.106831 41.3939437,52.5089437 C41.5580282,52.9110563 41.6411268,53.3434507 41.6411268,53.806831 C41.6411268,54.269507 41.5580282,54.7033099 41.3939437,55.1089437 C41.2291549,55.5145775 41.0002817,55.8680986 40.7094366,56.1688028 C40.4178873,56.4702113 40.0735211,56.7082394 39.6777465,56.8821831 C39.2819718,57.0561268 38.8552113,57.1434507 38.3988732,57.1434507" id="Fill-51" fill="#414142" mask="url(#mask-2)"></path>
                    <path d="M46.3564789,53.6166901 C46.7557746,53.6166901 47.0550704,53.5180986 47.2543662,53.3216197 C47.4550704,53.1251408 47.5543662,52.8624648 47.5543662,52.5328873 C47.5543662,52.1842958 47.4466197,51.913169 47.2311268,51.7202113 C47.0156338,51.5265493 46.7177465,51.4300704 46.3374648,51.4300704 L45.1395775,51.4300704 L45.1395775,53.6166901 L46.3564789,53.6166901 Z M44.2557746,50.6406338 L46.2804225,50.6406338 C46.6860563,50.6406338 47.0283099,50.6962676 47.3071831,50.8075352 C47.5860563,50.9180986 47.8121127,51.0603521 47.9867606,51.235 C48.1614085,51.4089437 48.2874648,51.606831 48.3670423,51.8293662 C48.4466197,52.050493 48.4860563,52.2758451 48.4860563,52.5040141 C48.4860563,52.9096479 48.3909859,53.2680986 48.2008451,53.5779577 C48.0107042,53.8892254 47.716338,54.1202113 47.316338,54.2723239 L48.8001408,56.9814789 L47.7733803,56.9814789 L46.4135211,54.3864085 L45.1395775,54.3864085 L45.1395775,56.9814789 L44.2557746,56.9814789 L44.2557746,50.6406338 Z" id="Fill-52" fill="#414142" mask="url(#mask-2)"></path>
                    <path d="M204.593944,53.7116197 C204.986901,53.7116197 205.289014,53.6116197 205.50169,53.4123239 C205.714366,53.2130282 205.82,52.9348592 205.82,52.5806338 C205.82,52.2193662 205.710845,51.9362676 205.491831,51.7299296 C205.273521,51.5242958 204.974225,51.4207746 204.593944,51.4207746 L203.453099,51.4207746 L203.453099,53.7116197 L204.593944,53.7116197 Z M202.550282,50.6411972 L204.555915,50.6411972 C204.986901,50.6411972 205.343239,50.7017606 205.625634,50.8214789 C205.907324,50.9419014 206.132676,51.0940141 206.300282,51.2778169 C206.468592,51.4623239 206.585493,51.6679577 206.652394,51.8961268 C206.719296,52.1242958 206.75169,52.3461268 206.75169,52.5616197 C206.75169,52.8785211 206.698169,53.1573944 206.590423,53.3982394 C206.482676,53.6383803 206.334085,53.840493 206.143239,54.0017606 C205.953803,54.1637324 205.726338,54.2848592 205.463662,54.3679577 C205.200282,54.4503521 204.913662,54.4911972 204.603803,54.4911972 L203.453099,54.4911972 L203.453099,56.9827465 L202.550282,56.9827465 L202.550282,50.6411972 Z" id="Fill-53" fill="#414142" mask="url(#mask-2)"></path>
                    <path d="M212.237958,56.2885211 C212.586549,56.2885211 212.901338,56.2216197 213.183732,56.0885211 C213.465423,55.9554225 213.706972,55.7751408 213.906268,55.5462676 C214.105563,55.3188028 214.259789,55.0540141 214.366831,54.7526056 C214.475282,54.4519014 214.528803,54.1328873 214.528803,53.7976761 C214.528803,53.4554225 214.475282,53.1335915 214.366831,52.8328873 C214.259789,52.5314789 214.105563,52.2666901 213.906268,52.0385211 C213.706972,51.8103521 213.465423,51.6314789 213.183732,51.5011972 C212.901338,51.3716197 212.586549,51.306831 212.237958,51.306831 C211.889366,51.306831 211.575986,51.3716197 211.296408,51.5011972 C211.018239,51.6314789 210.778803,51.8103521 210.578803,52.0385211 C210.378803,52.2666901 210.225986,52.5314789 210.117535,52.8328873 C210.009789,53.1335915 209.956268,53.4554225 209.956268,53.7976761 C209.956268,54.1328873 210.009789,54.4519014 210.117535,54.7526056 C210.225986,55.0540141 210.378803,55.3188028 210.578803,55.5462676 C210.778803,55.7751408 211.018239,55.9554225 211.296408,56.0885211 C211.575986,56.2216197 211.889366,56.2885211 212.237958,56.2885211 M212.237958,57.1441549 C211.78162,57.1441549 211.356972,57.056831 210.96331,56.8828873 C210.571056,56.7082394 210.228099,56.4709155 209.936549,56.169507 C209.645,55.8680986 209.417535,55.5145775 209.252746,55.1089437 C209.087254,54.7040141 209.005563,54.269507 209.005563,53.8075352 C209.005563,53.3441549 209.087254,52.9117606 209.252746,52.5096479 C209.417535,52.106831 209.643592,51.7554225 209.932324,51.4540141 C210.221056,51.1526056 210.562606,50.9152817 210.959085,50.7406338 C211.354859,50.5666901 211.78162,50.4793662 212.237958,50.4793662 C212.693592,50.4793662 213.120352,50.5666901 213.516127,50.7406338 C213.912606,50.9152817 214.256268,51.1526056 214.547817,51.4540141 C214.839366,51.7554225 215.068239,52.106831 215.232324,52.5096479 C215.397113,52.9117606 215.480211,53.3441549 215.480211,53.8075352 C215.480211,54.269507 215.397113,54.7040141 215.232324,55.1089437 C215.068239,55.5145775 214.839366,55.8680986 214.547817,56.169507 C214.256268,56.4709155 213.912606,56.7082394 213.516127,56.8828873 C213.120352,57.056831 212.693592,57.1441549 212.237958,57.1441549" id="Fill-54" fill="#414142" mask="url(#mask-2)"></path>
                    <path d="M220.19493,53.6166901 C220.594225,53.6166901 220.894225,53.5180986 221.093521,53.3223239 C221.293521,53.1258451 221.392817,52.8624648 221.392817,52.5328873 C221.392817,52.1842958 221.28507,51.913169 221.069577,51.7202113 C220.854789,51.5265493 220.556901,51.4307746 220.17662,51.4307746 L218.978028,51.4307746 L218.978028,53.6166901 L220.19493,53.6166901 Z M218.094225,50.6406338 L220.119577,50.6406338 C220.525211,50.6406338 220.866761,50.6969718 221.146338,50.8075352 C221.424507,50.9180986 221.651268,51.0610563 221.825211,51.235 C221.999859,51.4096479 222.12662,51.6075352 222.205493,51.8293662 C222.28507,52.0511972 222.324507,52.2765493 222.324507,52.5047183 C222.324507,52.9103521 222.230141,53.2680986 222.039296,53.578662 C221.849859,53.8892254 221.554789,54.1209155 221.155493,54.2730282 L222.638592,56.9821831 L221.611831,56.9821831 L220.251972,54.3871127 L218.978028,54.3871127 L218.978028,56.9821831 L218.094225,56.9821831 L218.094225,50.6406338 Z" id="Fill-55" fill="#414142" mask="url(#mask-2)"></path>
                    <polygon id="Fill-56" fill="#414142" mask="url(#mask-2)" points="226.717254 51.4393662 224.444718 51.4393662 224.444718 50.6407746 229.892606 50.6407746 229.892606 51.4393662 227.62993 51.4393662 227.62993 56.9823239 226.717254 56.9823239"></polygon>
                    <polygon id="Fill-57" fill="#414142" mask="url(#mask-2)" points="232.269014 56.9827465 233.18169 56.9827465 233.18169 50.6411972 232.269014 50.6411972"></polygon>
                    <path d="M241.433732,55.8696479 C241.36331,55.9837324 241.256268,56.1140141 241.110493,56.2597887 C240.964718,56.4055634 240.787254,56.5435915 240.578099,56.673169 C240.368239,56.8027465 240.128099,56.9119014 239.855563,57.0006338 C239.583028,57.0893662 239.28162,57.1344366 238.952746,57.1344366 C238.483732,57.1344366 238.054859,57.0520423 237.668239,56.8872535 C237.28162,56.7224648 236.949225,56.4928873 236.670352,56.1978169 C236.391479,55.9034507 236.174577,55.5548592 236.019648,55.1520423 C235.864014,54.7492254 235.785845,54.310493 235.785845,53.8351408 C235.785845,53.3724648 235.864014,52.938662 236.019648,52.5330282 C236.174577,52.1273944 236.391479,51.7724648 236.670352,51.4682394 C236.949225,51.1633099 237.283732,50.9252817 237.673169,50.7499296 C238.06331,50.5759859 238.495704,50.488662 238.971056,50.488662 C239.306972,50.488662 239.60838,50.5302113 239.874577,50.6126056 C240.140775,50.695 240.373169,50.7978169 240.573169,50.9217606 C240.773169,51.045 240.944296,51.1802113 241.086549,51.3252817 C241.229507,51.4717606 241.345,51.610493 241.433732,51.7442958 L240.787254,52.2957042 C240.711197,52.1872535 240.621056,52.0745775 240.516127,51.9576761 C240.411901,51.8400704 240.286549,51.7344366 240.140775,51.6393662 C239.995,51.5435915 239.827394,51.4647183 239.636549,51.401338 C239.447113,51.3379577 239.228099,51.3069718 238.980915,51.3069718 C238.63162,51.3069718 238.319648,51.373169 238.045,51.5062676 C237.768944,51.6393662 237.534437,51.8196479 237.340775,52.0478169 C237.147113,52.2759859 236.99993,52.5421831 236.899225,52.8464085 C236.797113,53.151338 236.747113,53.4745775 236.747113,53.8161268 C236.747113,54.1583803 236.799225,54.4802113 236.903451,54.7809155 C237.00838,55.0823239 237.155563,55.3435915 237.345,55.5654225 C237.535845,55.7879577 237.766831,55.9619014 238.04007,56.088662 C238.311901,56.2154225 238.616127,56.2788028 238.952746,56.2788028 C239.237254,56.2788028 239.482324,56.2421831 239.688662,56.1696479 C239.894296,56.0964085 240.069648,56.0090845 240.211901,55.9083803 C240.354859,55.8062676 240.471761,55.7034507 240.564014,55.5985211 C240.655563,55.4942958 240.733028,55.4076761 240.797113,55.3372535 L241.433732,55.8696479 Z" id="Fill-58" fill="#414142" mask="url(#mask-2)"></path>
                    <path d="M246.719577,56.2885211 C247.068169,56.2885211 247.382958,56.2216197 247.665352,56.0885211 C247.947042,55.9554225 248.188592,55.7751408 248.387887,55.5462676 C248.587183,55.3188028 248.741408,55.0540141 248.848451,54.7526056 C248.956901,54.4519014 249.010423,54.1328873 249.010423,53.7976761 C249.010423,53.4554225 248.956901,53.1335915 248.848451,52.8328873 C248.741408,52.5314789 248.587183,52.2666901 248.387887,52.0385211 C248.188592,51.8103521 247.947042,51.6314789 247.665352,51.5011972 C247.382958,51.3716197 247.068169,51.306831 246.719577,51.306831 C246.370986,51.306831 246.057606,51.3716197 245.778028,51.5011972 C245.499859,51.6314789 245.260423,51.8103521 245.060423,52.0385211 C244.860423,52.2666901 244.707606,52.5314789 244.599155,52.8328873 C244.491408,53.1335915 244.437887,53.4554225 244.437887,53.7976761 C244.437887,54.1328873 244.491408,54.4519014 244.599155,54.7526056 C244.707606,55.0540141 244.860423,55.3188028 245.060423,55.5462676 C245.260423,55.7751408 245.499859,55.9554225 245.778028,56.0885211 C246.057606,56.2216197 246.370986,56.2885211 246.719577,56.2885211 M246.719577,57.1441549 C246.263239,57.1441549 245.838592,57.056831 245.44493,56.8828873 C245.052676,56.7082394 244.709718,56.4709155 244.418169,56.169507 C244.12662,55.8680986 243.899155,55.5145775 243.734366,55.1089437 C243.568873,54.7040141 243.487183,54.269507 243.487183,53.8075352 C243.487183,53.3441549 243.568873,52.9117606 243.734366,52.5096479 C243.899155,52.106831 244.125211,51.7554225 244.413944,51.4540141 C244.702676,51.1526056 245.044225,50.9152817 245.440704,50.7406338 C245.836479,50.5666901 246.263239,50.4793662 246.719577,50.4793662 C247.175211,50.4793662 247.601972,50.5666901 247.997746,50.7406338 C248.394225,50.9152817 248.737887,51.1526056 249.029437,51.4540141 C249.320986,51.7554225 249.549859,52.106831 249.713944,52.5096479 C249.878732,52.9117606 249.961831,53.3441549 249.961831,53.8075352 C249.961831,54.269507 249.878732,54.7040141 249.713944,55.1089437 C249.549859,55.5145775 249.320986,55.8680986 249.029437,56.169507 C248.737887,56.4709155 248.394225,56.7082394 247.997746,56.8828873 C247.601972,57.056831 247.175211,57.1441549 246.719577,57.1441549" id="Fill-59" fill="#414142" mask="url(#mask-2)"></path>
                    <polygon id="Fill-60" fill="#414142" mask="url(#mask-2)" points="68.1915493 56.9820423 69.1042254 56.9820423 69.1042254 50.6411972 68.1915493 50.6411972"></polygon>
                    <polygon id="Fill-61" fill="#414142" mask="url(#mask-2)" points="73.7524648 51.4393662 71.4806338 51.4393662 71.4806338 50.6407746 76.9285211 50.6407746 76.9285211 51.4393662 74.6658451 51.4393662 74.6658451 56.9816197 73.7524648 56.9816197"></polygon>
                    <polygon id="Fill-62" fill="#414142" mask="url(#mask-2)" points="79.3051408 50.6409155 80.2171127 50.6409155 80.2171127 53.2937324 83.6875352 53.2937324 83.6875352 50.6409155 84.6009155 50.6409155 84.6009155 56.9817606 83.6875352 56.9817606 83.6875352 54.1106338 80.2171127 54.1106338 80.2171127 56.9817606 79.3051408 56.9817606"></polygon>
                    <path d="M90.7893662,54.4433099 L89.7626056,51.6580986 L88.7266901,54.4433099 L90.7893662,54.4433099 Z M89.3252817,50.6411972 L90.2569718,50.6411972 L92.738662,56.981338 L91.7210563,56.981338 L91.0654225,55.2137324 L88.4597887,55.2137324 L87.8041549,56.981338 L86.8435915,56.981338 L89.3252817,50.6411972 Z" id="Fill-63" fill="#414142" mask="url(#mask-2)"></path>
                    <polygon id="Fill-64" fill="#414142" mask="url(#mask-2)" points="94.991338 50.6409155 95.8941549 50.6409155 95.8941549 53.5211972 98.5476761 50.6409155 99.5927465 50.6409155 97.2357042 53.226831 99.8772535 56.9817606 98.785 56.9817606 96.6173944 53.8733099 95.8941549 54.6521831 95.8941549 56.9817606 94.991338 56.9817606"></polygon>
                    <path d="M105.468028,54.4433099 L104.441268,51.6580986 L103.405352,54.4433099 L105.468028,54.4433099 Z M104.003944,50.6411972 L104.935634,50.6411972 L107.417324,56.981338 L106.399718,56.981338 L105.744085,55.2137324 L103.138451,55.2137324 L102.482817,56.981338 L101.522254,56.981338 L104.003944,50.6411972 Z" id="Fill-65" fill="#414142" mask="url(#mask-2)"></path>
                    <path d="M113.092817,55.4419014 C113.180845,55.5433099 113.281549,55.6461268 113.392113,55.7503521 C113.502676,55.8552817 113.628028,55.9489437 113.767465,56.031338 C113.906901,56.1137324 114.062535,56.1799296 114.232958,56.2306338 C114.404085,56.281338 114.591408,56.3073944 114.794225,56.3073944 C115.212535,56.3073944 115.539296,56.2123239 115.773803,56.0214789 C116.007606,55.8320423 116.125915,55.5742958 116.125915,55.2510563 C116.125915,54.903169 115.992113,54.6411972 115.725915,54.4672535 C115.459718,54.2926056 115.075915,54.1517606 114.575211,54.0447183 C114.30338,53.9876761 114.055493,53.9080986 113.834366,53.8066901 C113.611831,53.7052817 113.420282,53.5785211 113.259014,53.4264085 C113.097042,53.2742958 112.97169,53.0982394 112.883662,52.8989437 C112.794225,52.6989437 112.750563,52.4721831 112.750563,52.218662 C112.750563,51.9848592 112.794225,51.7623239 112.883662,51.5538732 C112.97169,51.3447183 113.105493,51.1602113 113.282958,51.0017606 C113.459718,50.8440141 113.681549,50.7165493 113.948451,50.6214789 C114.214648,50.5271127 114.52169,50.4792254 114.869577,50.4792254 C115.180845,50.4792254 115.449155,50.5123239 115.673099,50.5792254 C115.898451,50.6454225 116.09,50.7264085 116.248451,50.8207746 C116.407606,50.9165493 116.534366,51.0151408 116.628732,51.1158451 C116.723803,51.2172535 116.797042,51.2996479 116.847746,51.3630282 L116.24,51.9242958 C116.201268,51.8799296 116.144225,51.8207746 116.068169,51.7482394 C115.992113,51.675 115.89493,51.6045775 115.778028,51.5341549 C115.660423,51.4651408 115.524507,51.4059859 115.368873,51.3580986 C115.213944,51.3109155 115.03507,51.2876761 114.832958,51.2876761 C114.629437,51.2876761 114.455493,51.3144366 114.309718,51.3679577 C114.163944,51.4221831 114.043521,51.4919014 113.948451,51.5771127 C113.85338,51.6630282 113.782958,51.759507 113.739296,51.8672535 C113.694225,51.975 113.672394,52.0820423 113.672394,52.190493 C113.672394,52.3482394 113.705493,52.4834507 113.772394,52.5940141 C113.838592,52.7052817 113.93507,52.8038732 114.062535,52.8890845 C114.189296,52.9742958 114.345634,53.0475352 114.532958,53.1080986 C114.720282,53.1679577 114.932958,53.2264085 115.174507,53.2841549 C115.409014,53.3411972 115.638592,53.4151408 115.863944,53.5073944 C116.088592,53.5989437 116.29,53.7228873 116.467465,53.8778169 C116.64493,54.0334507 116.785775,54.2235915 116.890704,54.4482394 C116.99493,54.6728873 117.047042,54.9475352 117.047042,55.2707746 C117.047042,55.5433099 116.990704,55.7933099 116.87662,56.0214789 C116.762535,56.2496479 116.605493,56.4482394 116.405493,56.6158451 C116.206197,56.7834507 115.970282,56.9137324 115.697746,57.0059859 C115.425211,57.0975352 115.130141,57.1433099 114.813239,57.1433099 C114.515352,57.1433099 114.244225,57.1080986 114.000563,57.0390845 C113.756197,56.9693662 113.534366,56.8806338 113.33507,56.7728873 C113.135775,56.6651408 112.961127,56.5461268 112.812535,56.4165493 C112.663239,56.2862676 112.541408,56.1580986 112.446338,56.031338 L113.092817,55.4419014 Z" id="Fill-66" fill="#414142" mask="url(#mask-2)"></path>
                    <polygon id="Fill-67" fill="#414142" mask="url(#mask-2)" points="119.747183 53.5596479 121.278169 53.5596479 121.278169 52.0666901 122.019718 52.0666901 122.019718 53.5596479 123.540845 53.5596479 123.540845 54.3011972 122.028873 54.3011972 122.028873 55.7934507 121.278169 55.7934507 121.278169 54.3011972 119.747183 54.3011972"></polygon>
                    <path d="M128.484014,53.6166901 C128.884014,53.6166901 129.18331,53.5180986 129.382606,53.3216197 C129.58331,53.1251408 129.681901,52.8624648 129.681901,52.5328873 C129.681901,52.1842958 129.574859,51.913169 129.358662,51.7202113 C129.143873,51.5265493 128.845986,51.4300704 128.465704,51.4300704 L127.267817,51.4300704 L127.267817,53.6166901 L128.484014,53.6166901 Z M126.384014,50.6406338 L128.408662,50.6406338 C128.814296,50.6406338 129.156549,50.6962676 129.435423,50.8075352 C129.713592,50.9180986 129.940352,51.0603521 130.115,51.235 C130.288944,51.4089437 130.415704,51.606831 130.494577,51.8293662 C130.574859,52.050493 130.614296,52.2758451 130.614296,52.5040141 C130.614296,52.9096479 130.519225,53.2680986 130.32838,53.5779577 C130.138944,53.8892254 129.844577,54.1202113 129.444577,54.2723239 L130.92838,56.9814789 L129.900915,56.9814789 L128.541761,54.3864085 L127.267817,54.3864085 L127.267817,56.9814789 L126.384014,56.9814789 L126.384014,50.6406338 Z" id="Fill-68" fill="#414142" mask="url(#mask-2)"></path>
                    <polygon id="Fill-69" fill="#414042" mask="url(#mask-2)" points="140.442958 54.7834507 141.851408 54.7834507 141.851408 53.3764085 140.442958 53.3764085"></polygon>
                    <polygon id="Fill-70" fill="#414042" mask="url(#mask-2)" points="192.672535 54.7834507 194.080986 54.7834507 194.080986 53.3764085 192.672535 53.3764085"></polygon>
                    <polygon id="Fill-71" fill="#414042" mask="url(#mask-2)" points="58.3147887 54.7834507 59.7232394 54.7834507 59.7232394 53.3764085 58.3147887 53.3764085"></polygon>
                </g>
            </g>
        </g>
    </g>
</svg>