<?xml version="1.0" encoding="UTF-8" standalone="no"?>
<svg width="86px" height="70px" viewBox="0 0 86 70" version="1.1" xmlns="http://www.w3.org/2000/svg" xmlns:xlink="http://www.w3.org/1999/xlink">
    <!-- Generator: Sketch 40.3 (33839) - http://www.bohemiancoding.com/sketch -->
    <title>Brought to you by JSTOR Labs</title>
    <desc>Created with Sketch.</desc>
    <defs>
        <polygon id="path-1" points="0 0.750803279 0 19.531541 5.62580328 19.531541 5.62580328 0.750803279 2.88824349e-20 0.750803279"></polygon>
    </defs>
    <g id="Page-1" stroke="none" stroke-width="1" fill="none" fill-rule="evenodd">
        <g id="Desktop-HD---Home" transform="translate(-1305.000000, -1882.000000)">
            <g id="Brought-to-you-by-JSTOR-Labs" transform="translate(1304.000000, 1880.000000)">
                <g id="JSTOR-Labs-Logo" transform="translate(11.000000, 22.000000)">
                    <g id="Page-1">
                        <polygon id="Fill-1" fill="#404041" points="2.71497541 19.6417213 2.71497541 49.017459 15.0138279 49.017459 15.0138279 44.9512295 7.05931967 44.9512295 7.05931967 19.6417213"></polygon>
                        <path d="M21.3572951,19.6417213 L17.0534426,49.017459 L21.3178689,49.017459 L22.0115574,43.0864754 L26.3559016,43.0864754 L27.0890164,49.017459 L31.5122131,49.017459 L27.0101639,19.6417213 L21.3572951,19.6417213 Z M24.1139344,22.1213115 L24.332377,22.1213115 L25.9392623,39.180082 L22.4079508,39.180082 L24.1139344,22.1213115 Z" id="Fill-2" fill="#404041"></path>
                        <g id="Group-18" transform="translate(0.000000, 0.576369)">
                            <path d="M34.5680656,48.4411967 L34.5680656,19.065459 L40.0024918,19.065459 C43.1501967,19.065459 45.3250328,19.628082 46.5280656,20.7511967 C47.7321639,21.8764426 48.3331475,23.8594754 48.3331475,26.7024262 C48.3331475,28.5139016 48.1051148,29.9193934 47.6490492,30.9167705 C47.1929836,31.9152131 46.4492131,32.6398033 45.4177377,33.0894754 C46.5685574,33.5391475 47.4114262,34.3159508 47.9463443,35.4198852 C48.4823279,36.5238197 48.7497869,38.0348033 48.7497869,39.9517705 C48.7497869,42.9534918 48.0827377,45.1187377 46.7465082,46.4475082 C45.4113443,47.7762787 43.2365082,48.4411967 40.2209344,48.4411967 L34.5680656,48.4411967 Z M38.9124098,31.343 L40.2209344,31.343 C41.5827377,31.343 42.5385574,31.0233279 43.0873279,30.3818525 C43.6360984,29.740377 43.9099508,28.6002131 43.9099508,26.9602951 C43.9099508,25.3875082 43.6424918,24.2963607 43.1065082,23.6868525 C42.5715902,23.0794754 41.6360164,22.7747213 40.3008525,22.7747213 L38.9124098,22.7747213 L38.9124098,31.343 Z M38.9124098,44.6722623 L40.4585574,44.6722623 C41.8874918,44.6722623 42.8859344,44.3057049 43.4538852,43.5715246 C44.0229016,42.8373443 44.3074098,41.525623 44.3074098,39.6342295 C44.3074098,37.9825902 44.0260984,36.8275082 43.464541,36.1732459 C42.901918,35.5189836 41.9002787,35.1918525 40.4585574,35.1918525 L38.9124098,35.1918525 L38.9124098,44.6722623 Z" id="Fill-3" fill="#404041"></path>
                            <path d="M51.571959,40.8047623 L55.717041,40.1899262 L55.717041,40.4477951 C55.717041,42.0344344 55.9226967,43.2289426 56.331877,44.028123 C56.742123,44.8283689 57.3633525,45.227959 58.1966311,45.227959 C58.9233525,45.227959 59.4859754,44.9477131 59.8823689,44.3850902 C60.2798279,43.8235328 60.4780246,43.0200902 60.4780246,41.9747623 C60.4780246,41.2608279 60.3416311,40.5564836 60.0709754,39.8627951 C59.8003197,39.168041 59.3804836,38.4242705 58.8114672,37.6314836 C58.2690902,36.9036967 57.3441721,35.7571393 56.034582,34.1896803 C54.7260574,32.6232869 53.8458934,31.4298443 53.3972869,30.6093525 C52.8943361,29.6844344 52.517123,28.7946803 52.2656475,27.9422213 C52.0152377,27.0886967 51.8895,26.2724672 51.8895,25.4924672 C51.8895,23.3368115 52.4446639,21.6286967 53.5549918,20.3649262 C54.6663852,19.1022213 56.1603197,18.4703361 58.0378607,18.4703361 C59.9548279,18.4703361 61.4700738,19.1118115 62.5804016,20.3947623 C63.6907295,21.6777131 64.2863852,23.4827951 64.3652377,25.8100082 L60.4385984,26.3055 C60.3714672,24.9042705 60.1476967,23.8823852 59.7640902,23.2409098 C59.3804836,22.6005 58.8050738,22.2786967 58.0378607,22.2786967 C57.4699098,22.2786967 56.9999918,22.5333689 56.6302377,23.0427131 C56.259418,23.5520574 56.0740082,24.203123 56.0740082,24.9959098 C56.0740082,25.6970574 56.2562213,26.4706639 56.619582,27.3167295 C56.9840082,28.1638607 57.4954836,29.0024672 58.1572049,29.8357459 C58.4086803,30.1532869 58.7848279,30.6168115 59.2877787,31.2241885 C61.0726148,33.4203361 62.2756475,34.9995164 62.8979426,35.9649262 C63.4925328,36.8770574 63.9358115,37.8296803 64.2267131,38.8217295 C64.5176148,39.8127131 64.6625328,40.8644344 64.6625328,41.9747623 C64.6625328,44.0515656 64.0615492,45.7436967 62.8585164,47.0532869 C61.6554836,48.3618115 60.1008115,49.0160738 58.1966311,49.0160738 C56.2263852,49.0160738 54.669582,48.3095984 53.5251557,46.8945164 C52.3817951,45.4794344 51.7307295,43.4495164 51.571959,40.8047623" id="Fill-5" fill="#404041"></path>
                            <g id="Group-9">
                                <mask id="mask-2" fill="white">
                                    <use xlink:href="#path-1"></use>
                                </mask>
                                <g id="Clip-8"></g>
                                <path d="M4.27998361,10.6553115 C4.27998361,13.6826066 4.27998361,14.8419508 3.7194918,16.1696557 C3.32842623,17.1030984 2.5047377,17.9811311 0.990557377,19.0275246 C0.748672131,19.1958852 0.450311475,19.401541 0.262770492,19.4953115 C0.22547541,19.5134262 0.188180328,19.531541 0.131704918,19.531541 C0.0752295082,19.531541 -0.000426229508,19.4953115 -0.000426229508,19.4207213 C-0.000426229508,19.3077705 0.0944098361,19.2512951 0.262770492,19.1404754 C0.486540984,19.0083443 0.748672131,18.7845738 0.917032787,18.6162131 C2.12965574,17.3833443 2.71039344,16.3923607 2.71039344,11.5706393 L2.71039344,6.17031148 C2.71039344,3.25703279 2.71039344,2.73170492 2.67309836,2.13391803 C2.6347377,1.49777049 2.48662295,1.19940984 1.87072131,1.06940984 C1.71940984,1.03211475 1.40186885,1.01293443 1.23457377,1.01293443 C1.15891803,1.01293443 1.08432787,0.975639344 1.08432787,0.90104918 C1.08432787,0.789163934 1.17809836,0.750803279 1.3837541,0.750803279 C2.2244918,0.750803279 3.40195082,0.807278689 3.49572131,0.807278689 C3.58842623,0.807278689 4.76588525,0.750803279 5.32744262,0.750803279 C5.53203279,0.750803279 5.62580328,0.789163934 5.62580328,0.90104918 C5.62580328,0.975639344 5.55121311,1.01293443 5.47662295,1.01293443 C5.3444918,1.01293443 5.23367213,1.03211475 5.00883607,1.06940984 C4.50588525,1.16104918 4.35457377,1.47965574 4.31834426,2.13391803 C4.27998361,2.73170492 4.27998361,3.25703279 4.27998361,6.17031148 L4.27998361,10.6553115 Z" id="Fill-7" fill="#76787A" mask="url(#mask-2)"></path>
                            </g>
                            <path d="M9.27965574,14.6357623 C9.01965574,14.5046967 8.99940984,14.4301066 8.99940984,13.9260902 C8.99940984,12.991582 9.07506557,12.2435492 9.09318033,11.9451885 C9.11129508,11.7395328 9.14965574,11.6457623 9.24342623,11.6457623 C9.35637705,11.6457623 9.37342623,11.7022377 9.37342623,11.8524836 C9.37342623,12.0197787 9.37342623,12.2819098 9.43096721,12.5419098 C9.71014754,13.9260902 10.944082,14.4492869 12.1950656,14.4492869 C13.9894918,14.4492869 14.8685902,13.1610082 14.8685902,11.9633033 C14.8685902,10.673959 14.3251475,9.92592623 12.7182623,8.60035246 L11.8775246,7.90879508 C9.89768852,6.28272951 9.44801639,5.12338525 9.44801639,3.85322131 C9.44801639,1.85313934 10.944082,0.489204918 13.3160492,0.489204918 C14.0470328,0.489204918 14.5872787,0.564860656 15.0529344,0.676745902 C15.4099016,0.751336066 15.559082,0.770516393 15.7082623,0.770516393 C15.8595738,0.770516393 15.8958033,0.807811475 15.8958033,0.900516393 C15.8958033,0.994286885 15.8212131,1.6112541 15.8212131,2.88141803 C15.8212131,3.18084426 15.7849836,3.31084426 15.6912131,3.31084426 C15.5782623,3.31084426 15.559082,3.21813934 15.5420328,3.06895902 C15.5228525,2.84412295 15.4099016,2.33904098 15.2969508,2.13445082 C15.1861311,1.92772951 14.6799836,1.14346721 12.9622787,1.14346721 C11.6718689,1.14346721 10.6638361,1.94690984 10.6638361,3.31084426 C10.6638361,4.37641803 11.1859672,5.01256557 12.9430984,6.45109016 L13.4662951,6.86240164 C15.6720328,8.60035246 16.1952295,9.75969672 16.1952295,11.2536311 C16.1952295,12.0197787 15.8958033,13.439123 14.606459,14.3555164 C13.8030164,14.9170738 12.793918,15.1408443 11.7837541,15.1408443 C10.9067869,15.1408443 10.0458033,15.0097787 9.27965574,14.6357623" id="Fill-10" fill="#76787A"></path>
                            <path d="M26.5231967,9.4597377 C26.5231967,11.2541639 26.5231967,12.7299836 26.6169672,13.5153115 C26.672377,14.0576885 26.7853279,14.4679344 27.3458197,14.5425246 C27.6068852,14.5808852 28.0181967,14.6171148 28.1865574,14.6171148 C28.2995082,14.6171148 28.3346721,14.6735902 28.3346721,14.7300656 C28.3346721,14.8227705 28.2430328,14.8792459 28.037377,14.8792459 C27.0090984,14.8792459 25.8316393,14.8227705 25.74,14.8227705 C25.6451639,14.8227705 24.4677049,14.8792459 23.9072131,14.8792459 C23.7015574,14.8792459 23.6088525,14.8419508 23.6088525,14.7300656 C23.6088525,14.6735902 23.645082,14.6171148 23.7580328,14.6171148 C23.9263934,14.6171148 24.1512295,14.5808852 24.3185246,14.5425246 C24.6914754,14.4679344 24.7841803,14.0576885 24.8598361,13.5153115 C24.9536066,12.7299836 24.9536066,11.2541639 24.9536066,9.4597377 L24.9536066,1.55531148 L22.1884426,1.59154098 C21.0301639,1.61072131 20.5815574,1.74178689 20.2821311,2.19039344 C20.0743443,2.50793443 20.02,2.63793443 19.9656557,2.77006557 C19.9070492,2.9192459 19.8527049,2.95654098 19.7770492,2.95654098 C19.7216393,2.95654098 19.6832787,2.90113115 19.6832787,2.78818033 C19.6832787,2.60170492 20.0583607,0.993754098 20.0945902,0.84457377 C20.1329508,0.731622951 20.207541,0.489737705 20.2821311,0.489737705 C20.4121311,0.489737705 20.5996721,0.676213115 21.1047541,0.713508197 C21.6460656,0.77104918 22.3568033,0.808344262 22.5795082,0.808344262 L29.5867213,0.808344262 C30.7844262,0.808344262 31.2884426,0.621868852 31.4397541,0.621868852 C31.5303279,0.621868852 31.5303279,0.731622951 31.5303279,0.84457377 C31.5303279,1.40506557 31.4759836,2.69547541 31.4759836,2.90113115 C31.4759836,3.0694918 31.4184426,3.14408197 31.3459836,3.14408197 C31.2522131,3.14408197 31.2127869,3.08760656 31.1957377,2.82547541 L31.1765574,2.61981967 C31.1019672,2.05932787 30.6714754,1.62990164 28.8781148,1.59154098 L26.5231967,1.55531148 L26.5231967,9.4597377 Z" id="Fill-12" fill="#76787A"></path>
                            <path d="M41.0635902,0.489311475 C45.2694098,0.489311475 48.4075246,3.14259016 48.4075246,7.49652459 C48.4075246,11.6842295 45.4558852,15.1409508 40.9527705,15.1409508 C35.8326885,15.1409508 33.7026066,11.1599672 33.7026066,7.79595082 C33.7026066,4.76972131 35.9072787,0.489311475 41.0635902,0.489311475 M41.4578525,14.4302131 C43.1393279,14.4302131 46.6141639,13.4584098 46.6141639,8.02185246 C46.6141639,3.53472131 43.8862951,1.12439344 40.9325246,1.12439344 C37.8135902,1.12439344 35.4778525,3.18095082 35.4778525,7.2727541 C35.4778525,11.6277541 38.0938361,14.4302131 41.4578525,14.4302131" id="Fill-14" fill="#76787A"></path>
                            <path d="M52.0923852,6.1707377 C52.0923852,3.25532787 52.0923852,2.73213115 52.0550902,2.13434426 C52.0177951,1.49819672 51.8686148,1.19877049 51.2527131,1.06983607 C51.1003361,1.03147541 50.7838607,1.01336066 50.6155,1.01336066 C50.5409098,1.01336066 50.4663197,0.976065574 50.4663197,0.90147541 C50.4663197,0.78852459 50.5600902,0.751229508 50.7668115,0.751229508 C51.605418,0.751229508 52.7850082,0.807704918 52.8787787,0.807704918 C53.0823033,0.807704918 54.5037787,0.751229508 55.0823852,0.751229508 C56.2598443,0.751229508 57.512959,0.863114754 58.5039426,1.57385246 C58.9695984,1.9095082 59.7922213,2.82590164 59.7922213,4.1152459 C59.7922213,5.49729508 59.2125492,6.88040984 57.5300082,8.43188525 C59.0633689,10.3936066 60.3356639,12.0569672 61.4172213,13.2152459 C62.4263197,14.2808197 63.2297623,14.4864754 63.6975492,14.5610656 C64.0523852,14.617541 64.3145164,14.617541 64.4264016,14.617541 C64.5201721,14.617541 64.5947623,14.6729508 64.5947623,14.7304918 C64.5947623,14.8413115 64.482877,14.8786066 64.1461557,14.8786066 L62.8173852,14.8786066 C61.773123,14.8786066 61.3064016,14.7859016 60.8194344,14.5237705 C60.0159918,14.0943443 59.3617295,13.1790164 58.2972213,11.7767213 C57.512959,10.7495082 56.6327951,9.49639344 56.2598443,9.01155738 C56.1863197,8.93590164 56.1287787,8.89860656 56.017959,8.89860656 L53.7184508,8.86237705 C53.6257459,8.86237705 53.5873852,8.91778689 53.5873852,9.01155738 L53.5873852,9.45909836 C53.5873852,11.2535246 53.5873852,12.7304098 53.6811557,13.5157377 C53.7365656,14.0559836 53.8495164,14.4672951 54.4100082,14.5429508 C54.6721393,14.5802459 55.0823852,14.617541 55.2507459,14.617541 C55.3636967,14.617541 55.3999262,14.6729508 55.3999262,14.7304918 C55.3999262,14.8231967 55.3061557,14.8786066 55.1015656,14.8786066 C54.0732869,14.8786066 52.8968934,14.8231967 52.803123,14.8231967 C52.7850082,14.8231967 51.605418,14.8786066 51.0470574,14.8786066 C50.8414016,14.8786066 50.7476311,14.8413115 50.7476311,14.7304918 C50.7476311,14.6729508 50.7838607,14.617541 50.8968115,14.617541 C51.0641066,14.617541 51.2889426,14.5802459 51.4573033,14.5429508 C51.8323852,14.4672951 51.9240246,14.0559836 52.0007459,13.5157377 C52.0923852,12.7304098 52.0923852,11.2535246 52.0923852,9.45909836 L52.0923852,6.1707377 Z M53.5873852,7.79680328 C53.5873852,7.89057377 53.6257459,7.96516393 53.7184508,8.02057377 C53.9986967,8.18893443 54.8586148,8.32 55.6812377,8.32 C56.1287787,8.32 56.6519754,8.26459016 57.0824672,7.96516393 C57.7367295,7.5154918 58.2215656,6.50745902 58.2215656,5.08704918 C58.2215656,2.7502459 56.9886967,1.34901639 54.9886148,1.34901639 C54.4291885,1.34901639 53.9241066,1.4054918 53.7365656,1.46090164 C53.6449262,1.49819672 53.5873852,1.57385246 53.5873852,1.6857377 L53.5873852,7.79680328 Z" id="Fill-16" fill="#76787A"></path>
                        </g>
                    </g>
                </g>
                <text id="Brought-to-you-by" font-family="OpenSans-Semibold, Open Sans" font-size="10" font-weight="500" line-spacing="12" fill="#333333">
                    <tspan x="0" y="11">Brought to you by</tspan>
                </text>
            </g>
        </g>
    </g>
</svg>